<svg width="24" height="18" viewBox="0 0 24 18" fill="none" xmlns="http://www.w3.org/2000/svg">
<path d="M7.4546 16.6504L7.45447 16.6503L1.348 10.5073L1.34787 10.5072C0.55071 9.70563 0.55071 8.40214 1.34787 7.60061L1.34812 7.60035C2.14236 6.80097 3.43051 6.80079 4.22545 7.60048L4.22549 7.60052L7.83408 11.2302C7.98737 11.4219 8.15802 11.6069 8.35317 11.729C8.46637 11.7999 8.6173 11.8687 8.80094 11.8865C8.99486 11.9052 9.1685 11.8616 9.30994 11.7905C9.51319 11.6885 9.66507 11.5107 9.70798 11.4605C9.7117 11.4562 9.7146 11.4528 9.71664 11.4505C9.78317 11.3755 9.80242 11.3587 9.81595 11.3494L9.87376 11.3097L9.92321 11.26L19.7745 1.34971L19.7747 1.34959C20.5689 0.550209 21.8571 0.550024 22.652 1.34971C23.0343 1.73433 23.25 2.25723 23.25 2.80312C23.25 3.34901 23.0343 3.87191 22.652 4.25653L10.3319 16.6503C9.53699 17.45 8.24884 17.4498 7.4546 16.6504Z" fill="#52BC6A" stroke="white" stroke-width="1.5"/>
</svg>
