<svg width="28" height="31" viewBox="0 0 28 31" fill="none" xmlns="http://www.w3.org/2000/svg">
<path d="M8.08333 30.2917C5.86111 29.2083 4.06944 27.6042 2.70833 25.4792C1.34722 23.3542 0.666666 20.9722 0.666666 18.3333C0.666666 15.4167 1.36111 12.8194 2.75 10.5417C4.13889 8.26389 5.66667 6.34722 7.33333 4.79167C9 3.23611 10.5278 2.04861 11.9167 1.22917C13.3056 0.409722 14 0 14 0V5.5C14 6.52778 14.3472 7.34028 15.0417 7.9375C15.7361 8.53472 16.5139 8.83333 17.375 8.83333C17.8472 8.83333 18.2986 8.73611 18.7292 8.54167C19.1597 8.34722 19.5556 8.02778 19.9167 7.58333L20.6667 6.66667C22.6667 7.83333 24.2778 9.45139 25.5 11.5208C26.7222 13.5903 27.3333 15.8611 27.3333 18.3333C27.3333 20.9722 26.6528 23.3542 25.2917 25.4792C23.9306 27.6042 22.1389 29.2083 19.9167 30.2917C20.5556 29.5694 21.0486 28.7639 21.3958 27.875C21.7431 26.9861 21.9167 26.0556 21.9167 25.0833C21.9167 24.0278 21.7222 23.0347 21.3333 22.1042C20.9444 21.1736 20.375 20.3333 19.625 19.5833L14 14.0833L8.41667 19.5833C7.63889 20.3333 7.05555 21.1736 6.66667 22.1042C6.27778 23.0347 6.08333 24.0278 6.08333 25.0833C6.08333 26.0556 6.25694 26.9861 6.60417 27.875C6.95139 28.7639 7.44444 29.5694 8.08333 30.2917ZM14 30.4167C12.5 30.4167 11.2222 29.8958 10.1667 28.8542C9.11111 27.8125 8.58333 26.5556 8.58333 25.0833C8.58333 24.3611 8.71528 23.6806 8.97917 23.0417C9.24306 22.4028 9.63889 21.8333 10.1667 21.3333L14 17.5833L17.8333 21.3333C18.3333 21.8333 18.7222 22.4028 19 23.0417C19.2778 23.6806 19.4167 24.3611 19.4167 25.0833C19.4167 26.5556 18.8889 27.8125 17.8333 28.8542C16.7778 29.8958 15.5 30.4167 14 30.4167Z" fill="url(#paint0_linear_1294_6904)"/>
<defs>
<linearGradient id="paint0_linear_1294_6904" x1="14" y1="0" x2="14" y2="30.4167" gradientUnits="userSpaceOnUse">
<stop stop-color="#FF4253"/>
<stop offset="1" stop-color="#FFB200"/>
</linearGradient>
</defs>
</svg>
