<svg xmlns="http://www.w3.org/2000/svg" xmlns:xlink="http://www.w3.org/1999/xlink" viewBox="0 0 79.1236 104.1002"><defs><clipPath id="3d5975e0-458e-4ba2-9f57-d17f139cb6a6"><rect x="33.301" y="39.1783" width="14.9965" height="49.9883" style="fill:none"/></clipPath><clipPath id="720ae81a-aa2c-412a-bb0f-fd2af70d7f52"><rect x="33.301" y="19.183" width="14.9965" height="19.9953" style="fill:none"/></clipPath><clipPath id="d5c383b4-2b7c-4263-8145-63bee445c009"><polygon points="24.303 51.675 16.763 46.052 9.307 51.675 9.307 19.183 24.303 19.183 24.303 51.675" style="fill:none"/></clipPath><clipPath id="a2473eff-b2b0-443c-bfed-36a3d16945bf"><polygon points="48.298 19.245 37.769 19.287 33.301 19.263 36.301 17.35 45.298 17.35 48.298 19.245" style="fill:none"/></clipPath><clipPath id="a7254bc1-9d98-419c-88d5-636e5cb9380f"><polygon points="24.303 19.273 9.307 19.291 15.31 17.35 28.306 17.35 24.303 19.273" style="fill:none"/></clipPath></defs><title>Слой 32</title><g id="e6459b6f-6093-4daa-aaaa-681be0dc0734" data-name="Слой 2"><g id="fec1213a-8149-43ba-8442-ad0c9134d04a" data-name="Слой 3"><rect x="3.308" y="25.1816" width="73.9827" height="63.9851" rx="4.0542" ry="4.0542" style="fill:#ed5a2d"/><path d="M73.2917,89.1667H7.3071A4.0008,4.0008,0,0,1,3.5,86.3943l73.6033-.0121A4.0009,4.0009,0,0,1,73.2917,89.1667Z" style="fill:#c14023"/><polygon points="25.303 53.675 17.763 48.051 10.306 53.675 10.306 41.483 25.303 42.032 25.303 53.675" style="fill:#c14023"/><path d="M51.7967,44.0106C30.2262,41.6138,3.308,41.3445,3.308,41.3445V29.2358a4.0543,4.0543,0,0,1,4.0543-4.0542H73.2365a4.0542,4.0542,0,0,1,4.0542,4.0542V47.1213S69.7925,46.01,51.7967,44.0106Z" style="fill:#c14023"/><rect x="33.301" y="39.1783" width="14.9965" height="49.9883" style="fill:#47c9a4"/><g style="clip-path:url(#3d5975e0-458e-4ba2-9f57-d17f139cb6a6)"><rect x="20.4127" y="59.1656" width="37.6734" height="8.5377" transform="translate(-33.359 46.333) rotate(-45)" style="fill:#84efce"/><rect x="17.705" y="75.223" width="37.6734" height="3" transform="translate(-43.5485 48.3105) rotate(-45)" style="fill:#84efce"/><rect x="13.0222" y="46.5206" width="37.6734" height="4.0502" transform="translate(-24.9957 36.7464) rotate(-45)" style="fill:#84efce"/><rect x="20.9543" y="86.4097" width="37.6734" height="5.1208" transform="translate(-51.2569 54.1952) rotate(-45)" style="fill:#84efce"/></g><rect x="33.301" y="86.385" width="14.9965" height="2.7817" style="fill:#3b7f72;opacity:0.5700000000000001"/><path d="M4.7925,19.183H75.473a3.6506,3.6506,0,0,1,3.6506,3.6506v15.432a.9127.9127,0,0,1-.9127.9127H2.0545a.9127.9127,0,0,1-.9127-.9127V22.8336A3.6506,3.6506,0,0,1,4.7925,19.183Z" style="fill:#ed5a2d"/><path d="M1.6554,20.9655A3.6489,3.6489,0,0,1,4.7925,19.183H75.473a3.649,3.649,0,0,1,3.1542,1.8115C78.9428,21.5346,1.3293,21.512,1.6554,20.9655Z" style="fill:#f27355"/><polygon points="48.298 43.644 33.301 42.468 33.301 25.182 48.298 25.182 48.298 43.644" style="fill:#3b7f72;opacity:0.5700000000000001"/><rect x="33.301" y="19.183" width="14.9965" height="19.9953" style="fill:#47c9a4"/><g style="clip-path:url(#720ae81a-aa2c-412a-bb0f-fd2af70d7f52)"><rect x="18.271" y="41.2865" width="37.6734" height="4.0207" transform="translate(-19.747 38.9205) rotate(-45)" style="fill:#84efce"/><rect x="19.755" y="24.4194" width="37.6734" height="6.981" transform="translate(-8.432 35.4631) rotate(-45)" style="fill:#84efce"/></g><polygon points="24.303 51.675 16.763 46.052 9.307 51.675 9.307 19.183 24.303 19.183 24.303 51.675" style="fill:#47c9a4"/><g style="clip-path:url(#d5c383b4-2b7c-4263-8145-63bee445c009)"><rect x="-3.7066" y="27.5901" width="37.6734" height="5.1208" transform="translate(-16.8882 19.5294) rotate(-45)" style="fill:#84efce"/><rect x="-3.8524" y="36.5626" width="37.6734" height="1.8807" transform="translate(-22.1298 21.5798) rotate(-45)" style="fill:#84efce"/></g><path d="M75.9044,19.2107l-72.02.0864,6.601-1.45A23.998,23.998,0,0,1,15.344,17.35H65.1521a23.9926,23.9926,0,0,1,5.4367.6241Z" style="fill:#af4635"/><polygon points="48.298 19.245 37.769 19.287 33.301 19.263 36.301 17.35 45.298 17.35 48.298 19.245" style="fill:#43b592"/><g style="clip-path:url(#a2473eff-b2b0-443c-bfed-36a3d16945bf)"><rect x="32.3634" y="14.2342" width="37.6734" height="6.981" transform="translate(-1.4948 30.3289) rotate(-32.5471)" style="fill:#58c69e"/><rect x="23.9022" y="14.643" width="37.6734" height="1.7753" transform="translate(-1.6432 25.4323) rotate(-32.5471)" style="fill:#58c69e"/></g><polygon points="24.303 19.273 9.307 19.291 15.31 17.35 28.306 17.35 24.303 19.273" style="fill:#43b592"/><g style="clip-path:url(#a7254bc1-9d98-419c-88d5-636e5cb9380f)"><rect x="9.881" y="17.6165" width="14.5804" height="1.7753" transform="translate(-4.9342 6.3138) rotate(-18.2645)" style="fill:#58c69e"/></g><rect x="9.3066" y="19.2859" width="14.9965" height="1.9468" style="fill:#77d8c5;opacity:0.5700000000000001"/><rect x="33.301" y="19.2712" width="14.9965" height="2.1093" style="fill:#77d8c5;opacity:0.5700000000000001"/><path d="M41.0076,18.0583s14.0592-11.06,23.557-11.6848c0,0-6.8734-6.1236-10.1852-6.3735C54.3794,0,42.6947,4.6864,41.0076,18.0583Z" style="fill:#84efce"/><path d="M41.0076,18.0583s16.996-.0625,23.557-11.6848c0,0-5.8737-1.0622-8.6855.4374s-1.7328,2.8435-1.7328,2.8435S51.4426,13.6843,41.0076,18.0583Z" style="fill:#3b7f72"/><path d="M41.0076,18.0583s10.93-.04,18.6431-6.05c0,0-6.2752-1.2054-8.5819.5313A46.7478,46.7478,0,0,1,41.0076,18.0583Z" style="fill:#489b8b"/><path d="M41.0076,18.0583S43.257,4.6239,54.6919,2.7494c0,0,8.3105,2.1869,9.8727,3.6241C64.5646,6.3735,56.1915,6.4516,41.0076,18.0583Z" style="fill:#47c9a4"/><path d="M40.9763,18.0583S26.9171,6.9984,17.4193,6.3735c0,0,6.8734-6.1236,10.1851-6.3735C27.6044,0,39.2892,4.6864,40.9763,18.0583Z" style="fill:#84efce"/><path d="M40.9763,18.0583S23.98,17.9958,17.4193,6.3735c0,0,5.8736-1.0622,8.6855.4374s1.7328,2.8435,1.7328,2.8435S30.5412,13.6843,40.9763,18.0583Z" style="fill:#3b7f72"/><path d="M40.9763,18.0583s-10.93-.04-18.6432-6.05c0,0,6.2752-1.2054,8.582.5313A46.7452,46.7452,0,0,0,40.9763,18.0583Z" style="fill:#489b8b"/><path d="M40.9763,18.0583S38.7268,4.6239,27.292,2.7494c0,0-8.3105,2.1869-9.8727,3.6241C17.4193,6.3735,25.7924,6.4516,40.9763,18.0583Z" style="fill:#47c9a4"/><path d="M43.84,18.17a17.6915,17.6915,0,0,1-5.3112,0c-.4567-.2221-.51-2.3539,0-2.797a23.2586,23.2586,0,0,1,5.3112,0C44.3609,15.7991,44.2776,17.9745,43.84,18.17Z" style="fill:#47c9a4"/><path d="M38.529,15.3573a7.5576,7.5576,0,0,0,.25,1.3651,17.7652,17.7652,0,0,0,4.7072.0448,4.3686,4.3686,0,0,0,.3541-1.41A21.92,21.92,0,0,0,38.529,15.3573Z" style="fill:#84efce"/></g></g></svg>