<svg id="svg" version="1.1" xmlns="http://www.w3.org/2000/svg" xmlns:xlink="http://www.w3.org/1999/xlink" width="400" height="395.2023988005997" viewBox="0, 0, 400,395.2023988005997"><g><path id="path0" d="M73.564 148.221 C 74.017 149.091,74.527 149.802,74.697 149.802 C 74.867 149.802,75.111 150.114,75.238 150.494 C 75.501 151.282,77.435 154.767,78.521 156.412 C 79.934 158.550,80.259 159.103,80.832 160.348 C 81.150 161.040,81.571 161.705,81.766 161.826 C 81.962 161.946,82.499 162.803,82.960 163.730 C 83.907 165.633,84.404 166.462,85.650 168.227 C 86.128 168.903,86.637 169.926,86.781 170.499 C 86.925 171.073,87.188 171.542,87.367 171.542 C 87.545 171.542,88.091 172.342,88.580 173.320 C 89.068 174.298,89.600 175.099,89.762 175.099 C 89.924 175.099,90.170 175.618,90.309 176.252 C 90.448 176.886,90.812 177.500,91.118 177.618 C 91.424 177.735,91.954 178.500,92.295 179.317 C 92.637 180.134,93.055 180.898,93.224 181.014 C 93.394 181.130,93.929 182.026,94.414 183.004 C 95.348 184.887,96.116 186.234,96.443 186.561 C 96.778 186.896,97.615 188.281,98.235 189.526 C 98.881 190.821,99.689 192.179,100.000 192.490 C 101.285 193.775,102.907 197.717,102.422 198.375 C 102.164 198.725,101.849 199.323,101.721 199.704 C 101.593 200.084,101.346 200.395,101.171 200.395 C 100.996 200.395,100.736 200.929,100.593 201.581 C 100.450 202.233,100.200 202.767,100.039 202.767 C 99.877 202.767,99.345 203.567,98.857 204.545 C 98.368 205.524,97.817 206.324,97.632 206.324 C 97.447 206.324,97.179 206.858,97.036 207.510 C 96.892 208.162,96.643 208.696,96.481 208.696 C 96.320 208.696,95.756 209.502,95.228 210.488 C 93.503 213.709,93.093 214.410,92.193 215.674 C 91.704 216.359,91.304 217.115,91.304 217.354 C 91.304 217.592,91.158 217.787,90.979 217.787 C 90.800 217.787,90.251 218.542,89.758 219.466 C 87.852 223.042,86.871 224.726,86.362 225.296 C 86.070 225.623,85.713 226.366,85.568 226.948 C 85.423 227.530,85.053 228.102,84.747 228.220 C 84.440 228.337,84.190 228.645,84.190 228.903 C 84.190 229.161,83.755 229.943,83.223 230.640 C 82.691 231.337,82.138 232.377,81.994 232.950 C 81.850 233.523,81.614 233.992,81.470 233.992 C 81.326 233.992,80.857 234.659,80.430 235.474 C 80.002 236.290,79.442 237.091,79.185 237.255 C 78.928 237.420,78.601 238.087,78.458 238.738 C 78.315 239.388,78.063 239.921,77.898 239.921 C 77.733 239.921,77.258 240.630,76.842 241.497 C 76.427 242.365,75.969 243.076,75.826 243.078 C 75.682 243.081,75.177 243.883,74.704 244.862 C 74.230 245.840,73.695 246.640,73.514 246.640 C 73.333 246.640,73.068 247.174,72.925 247.826 C 72.782 248.478,72.521 249.012,72.347 249.012 C 72.172 249.012,71.919 249.323,71.785 249.704 C 71.651 250.084,71.437 250.618,71.311 250.889 C 71.129 251.279,73.496 251.380,82.477 251.367 L 93.874 251.350 94.763 249.956 C 95.252 249.189,95.652 248.396,95.652 248.194 C 95.652 247.992,95.809 247.826,96.001 247.826 C 96.193 247.826,96.455 247.515,96.583 247.134 C 96.808 246.462,97.624 245.063,98.024 244.664 C 98.335 244.353,99.143 242.995,99.789 241.700 C 100.411 240.451,100.873 239.688,102.181 237.747 C 102.620 237.095,103.421 235.710,103.960 234.670 C 105.397 231.900,106.035 230.773,106.918 229.445 C 108.228 227.475,108.679 226.727,109.179 225.692 C 109.442 225.148,110.037 224.170,110.501 223.518 C 110.966 222.866,111.464 222.065,111.610 221.739 C 113.140 218.303,114.965 216.790,115.571 218.458 C 115.713 218.849,116.266 219.881,116.800 220.751 C 117.334 221.621,117.895 222.599,118.046 222.925 C 118.198 223.251,118.424 223.607,118.548 223.715 C 118.859 223.987,119.520 225.121,120.791 227.569 C 121.383 228.710,122.003 229.644,122.168 229.644 C 122.332 229.644,122.584 230.178,122.727 230.830 C 122.871 231.482,123.120 232.016,123.282 232.016 C 123.443 232.016,123.975 232.816,124.464 233.794 C 124.952 234.773,125.497 235.573,125.673 235.573 C 125.850 235.573,126.099 235.884,126.226 236.265 C 126.489 237.053,128.423 240.538,129.509 242.182 C 130.784 244.112,131.219 244.838,131.709 245.850 C 131.972 246.393,132.593 247.388,133.089 248.061 C 133.586 248.734,133.992 249.462,133.992 249.680 C 133.992 251.241,135.059 251.383,146.770 251.383 C 153.003 251.383,158.103 251.278,158.103 251.149 C 158.103 251.021,157.747 250.463,157.312 249.910 C 156.877 249.357,156.522 248.662,156.522 248.366 C 156.522 248.069,156.365 247.826,156.173 247.826 C 155.981 247.826,155.714 247.515,155.581 247.134 C 155.447 246.754,154.897 245.731,154.358 244.862 C 153.820 243.992,153.265 242.969,153.125 242.589 C 152.986 242.208,152.736 241.897,152.569 241.897 C 152.402 241.897,152.157 241.586,152.023 241.206 C 151.890 240.825,151.350 239.802,150.824 238.933 C 150.298 238.063,149.569 236.782,149.206 236.085 C 148.842 235.389,148.293 234.611,147.987 234.357 C 147.681 234.103,147.431 233.722,147.431 233.511 C 147.431 233.299,147.031 232.565,146.542 231.879 C 145.642 230.616,145.232 229.915,143.507 226.693 C 142.979 225.708,142.415 224.901,142.254 224.901 C 142.092 224.901,141.843 224.368,141.700 223.715 C 141.556 223.063,141.288 222.530,141.103 222.530 C 140.918 222.530,140.367 221.729,139.879 220.751 C 139.390 219.773,138.858 218.972,138.697 218.972 C 138.535 218.972,138.286 218.439,138.142 217.787 C 137.999 217.134,137.739 216.601,137.564 216.601 C 137.389 216.601,137.137 216.290,137.004 215.909 C 136.870 215.529,136.324 214.506,135.791 213.636 C 135.257 212.767,134.691 211.789,134.534 211.462 C 134.376 211.136,134.145 210.781,134.021 210.672 C 133.655 210.353,132.837 208.971,132.384 207.905 C 132.152 207.362,131.631 206.561,131.225 206.126 C 130.819 205.692,130.298 204.891,130.067 204.348 C 129.589 203.225,129.055 202.338,127.742 200.486 C 126.375 198.559,126.184 196.646,127.217 195.248 C 127.682 194.618,128.063 193.979,128.063 193.828 C 128.063 193.677,128.463 193.002,128.953 192.330 C 129.442 191.657,130.181 190.440,130.596 189.625 C 131.011 188.809,131.486 188.142,131.651 188.142 C 131.817 188.142,132.070 187.609,132.213 186.957 C 132.357 186.304,132.625 185.771,132.810 185.771 C 132.995 185.771,133.546 184.970,134.034 183.992 C 134.523 183.014,135.055 182.213,135.217 182.213 C 135.378 182.213,135.628 181.680,135.771 181.028 C 135.914 180.375,136.190 179.842,136.383 179.842 C 136.577 179.842,137.193 178.908,137.752 177.767 C 138.848 175.528,139.590 174.227,139.950 173.913 C 140.074 173.804,140.300 173.449,140.452 173.123 C 140.603 172.796,141.164 171.818,141.698 170.949 C 142.232 170.079,142.783 169.056,142.922 168.676 C 143.061 168.295,143.312 167.984,143.478 167.984 C 143.645 167.984,143.891 167.673,144.024 167.292 C 144.157 166.912,144.697 165.889,145.223 165.020 C 145.750 164.150,146.478 162.869,146.842 162.172 C 147.206 161.476,147.754 160.698,148.060 160.444 C 148.366 160.190,148.617 159.737,148.617 159.438 C 148.617 159.138,148.774 158.893,148.966 158.893 C 149.158 158.893,149.424 158.582,149.558 158.202 C 149.691 157.821,150.237 156.798,150.771 155.929 C 151.304 155.059,151.867 154.081,152.022 153.755 C 152.176 153.429,152.658 152.650,153.091 152.025 C 153.525 151.399,154.369 149.932,154.966 148.764 L 156.052 146.640 144.671 146.640 L 133.290 146.640 131.599 149.308 C 129.426 152.738,127.705 155.743,127.412 156.621 C 127.285 157.001,127.029 157.312,126.843 157.312 C 126.657 157.312,126.048 158.246,125.489 159.387 C 124.393 161.626,123.651 162.927,123.291 163.241 C 123.167 163.350,122.941 163.706,122.789 164.032 C 122.638 164.358,122.077 165.336,121.543 166.206 C 121.009 167.075,120.458 168.098,120.319 168.478 C 120.180 168.859,119.930 169.170,119.763 169.170 C 119.596 169.170,119.351 169.481,119.217 169.862 C 119.084 170.242,118.534 171.265,117.995 172.134 C 117.456 173.004,116.901 174.027,116.762 174.407 C 116.623 174.788,116.351 175.099,116.159 175.099 C 115.967 175.099,115.810 175.338,115.810 175.630 C 115.810 176.164,114.596 177.470,114.099 177.470 C 113.953 177.470,113.834 177.212,113.834 176.897 C 113.834 176.582,113.599 176.182,113.312 176.008 C 113.024 175.834,112.393 174.891,111.909 173.913 C 110.858 171.790,110.372 170.964,109.191 169.296 C 108.702 168.604,108.124 167.626,107.907 167.122 C 107.484 166.142,106.999 165.324,105.719 163.439 C 105.276 162.787,104.699 161.808,104.436 161.265 C 103.922 160.202,103.088 158.819,102.767 158.498 C 102.460 158.191,101.710 156.903,100.580 154.743 C 100.012 153.656,99.115 152.055,98.587 151.186 C 98.058 150.316,97.517 149.293,97.384 148.913 C 97.250 148.533,97.005 148.221,96.838 148.221 C 96.671 148.221,96.442 147.866,96.328 147.431 C 96.127 146.663,95.789 146.640,84.431 146.640 L 72.740 146.640 73.564 148.221 M166.403 199.012 L 166.403 251.383 174.308 251.383 C 178.656 251.383,182.213 251.230,182.213 251.042 C 182.213 250.751,183.622 248.767,184.976 247.151 C 185.196 246.889,185.375 246.516,185.375 246.323 C 185.375 246.130,185.731 245.650,186.166 245.257 C 186.601 244.863,186.957 244.317,186.957 244.043 C 186.957 243.769,187.090 243.485,187.253 243.412 C 187.625 243.247,189.328 240.837,189.328 240.476 C 189.328 240.329,189.728 239.822,190.217 239.348 C 191.149 238.446,191.923 237.365,192.356 236.364 C 192.497 236.038,193.207 235.029,193.935 234.123 C 194.662 233.217,195.257 232.353,195.257 232.204 C 195.257 232.054,195.791 231.258,196.443 230.435 C 197.095 229.611,197.628 228.817,197.628 228.670 C 197.628 228.523,198.296 227.570,199.112 226.553 C 200.643 224.645,201.387 223.556,201.859 222.530 C 202.009 222.204,202.542 221.613,203.042 221.216 C 203.543 220.820,203.953 220.312,203.953 220.087 C 203.953 219.863,204.486 219.005,205.138 218.182 C 205.791 217.358,206.324 216.515,206.324 216.309 C 206.324 216.102,206.680 215.611,207.115 215.217 C 207.549 214.824,207.905 214.263,207.905 213.970 C 207.905 213.678,208.087 213.439,208.310 213.439 C 208.533 213.439,208.888 213.039,209.100 212.549 C 209.649 211.279,210.355 210.208,211.265 209.266 C 212.234 208.262,212.993 207.134,213.292 206.253 C 213.415 205.887,213.766 205.493,214.071 205.376 C 214.375 205.259,214.625 204.981,214.625 204.759 C 214.625 204.537,215.203 203.566,215.909 202.602 C 216.616 201.638,217.638 200.203,218.182 199.413 C 218.725 198.623,219.436 197.690,219.760 197.339 C 220.348 196.705,221.057 195.595,221.596 194.466 C 221.752 194.140,221.981 193.785,222.106 193.676 C 222.533 193.303,224.111 190.941,224.111 190.674 C 224.111 190.527,224.555 189.995,225.099 189.491 C 225.642 188.987,226.087 188.389,226.087 188.161 C 226.087 187.933,226.265 187.747,226.482 187.747 C 226.742 187.747,226.877 198.617,226.877 219.565 L 226.877 251.383 237.154 251.383 L 247.431 251.383 247.431 199.012 L 247.431 146.640 239.625 146.640 L 231.818 146.640 230.731 148.003 C 230.133 148.752,229.644 149.489,229.644 149.642 C 229.644 149.794,229.022 150.678,228.261 151.607 C 227.500 152.535,226.877 153.417,226.877 153.567 C 226.877 153.716,226.344 154.513,225.692 155.336 C 225.040 156.159,224.506 156.953,224.506 157.101 C 224.506 157.248,223.794 158.212,222.925 159.243 C 222.055 160.274,221.344 161.259,221.344 161.431 C 221.344 161.603,220.810 162.418,220.158 163.241 C 219.506 164.065,218.972 164.861,218.972 165.010 C 218.972 165.160,218.350 166.042,217.589 166.970 C 216.828 167.899,216.206 168.785,216.206 168.941 C 216.206 169.265,214.203 172.013,213.702 172.377 C 213.376 172.614,212.571 173.903,212.002 175.099 C 211.847 175.425,211.484 175.834,211.196 176.008 C 210.908 176.182,210.672 176.551,210.672 176.828 C 210.672 177.106,210.227 177.750,209.684 178.261 C 209.140 178.771,208.696 179.416,208.696 179.694 C 208.696 179.971,208.460 180.340,208.172 180.514 C 207.884 180.688,207.521 181.097,207.366 181.423 C 206.799 182.614,205.992 183.907,205.668 184.144 C 205.130 184.538,203.557 186.891,203.557 187.303 C 203.557 187.511,203.424 187.740,203.261 187.813 C 202.889 187.978,201.186 190.388,201.186 190.749 C 201.186 190.896,200.786 191.404,200.296 191.877 C 199.360 192.784,198.583 193.871,198.162 194.862 C 198.024 195.188,197.224 196.287,196.386 197.304 C 195.548 198.321,194.862 199.335,194.862 199.557 C 194.862 199.779,194.626 200.103,194.338 200.277 C 194.050 200.451,193.687 200.860,193.532 201.186 C 192.973 202.359,192.271 203.426,191.008 205.017 C 190.301 205.907,189.723 206.755,189.723 206.901 C 189.723 207.355,187.673 209.881,187.305 209.881 C 187.107 209.881,186.957 196.239,186.957 178.261 L 186.957 146.640 176.680 146.640 L 166.403 146.640 166.403 199.012 M255.731 156.324 L 255.731 166.008 269.763 166.008 L 283.794 166.008 283.794 208.696 L 283.794 251.383 294.069 251.383 L 304.344 251.383 304.445 208.794 L 304.545 166.206 318.676 166.102 L 332.806 165.998 332.806 156.319 L 332.806 146.640 294.269 146.640 L 255.731 146.640 255.731 156.324 " stroke="none" fill="#fcfcfc" fill-rule="evenodd"></path><path id="path1" d="M159.100 0.448 C 158.235 0.650,157.381 1.077,157.202 1.396 C 157.024 1.715,156.711 1.976,156.507 1.976 C 155.921 1.976,154.545 3.285,154.545 3.843 C 154.545 4.121,154.371 4.348,154.158 4.348 C 153.944 4.348,153.658 4.792,153.522 5.336 C 153.386 5.879,153.130 6.324,152.953 6.324 C 152.776 6.324,152.515 6.858,152.372 7.510 C 152.228 8.162,151.962 8.696,151.779 8.696 C 151.596 8.696,151.329 9.229,151.186 9.881 C 151.043 10.534,150.764 11.067,150.566 11.067 C 150.369 11.067,150.093 11.779,149.954 12.648 C 149.815 13.518,149.560 14.229,149.388 14.229 C 149.216 14.229,148.957 14.763,148.814 15.415 C 148.671 16.067,148.430 16.601,148.279 16.601 C 148.127 16.601,147.652 17.400,147.223 18.376 C 146.794 19.352,146.309 20.152,146.146 20.154 C 145.983 20.156,145.850 20.472,145.850 20.856 C 145.850 21.239,145.494 22.217,145.059 23.028 C 144.625 23.839,144.269 24.771,144.269 25.097 C 144.269 25.424,144.105 25.692,143.905 25.692 C 143.705 25.692,143.424 26.225,143.281 26.877 C 143.137 27.530,142.876 28.063,142.700 28.063 C 142.524 28.063,142.264 28.686,142.121 29.447 C 141.978 30.208,141.706 30.830,141.515 30.830 C 141.325 30.830,141.052 31.364,140.909 32.016 C 140.766 32.668,140.497 33.202,140.311 33.202 C 140.126 33.202,139.856 33.575,139.711 34.031 C 139.419 34.950,138.139 36.364,137.598 36.364 C 137.407 36.364,137.033 36.626,136.768 36.946 C 136.502 37.266,135.680 37.642,134.941 37.781 C 134.201 37.919,133.597 38.191,133.597 38.384 C 133.597 38.577,132.174 38.735,130.435 38.735 C 128.590 38.735,127.273 38.570,127.273 38.340 C 127.273 38.123,126.961 37.944,126.581 37.942 C 126.201 37.941,125.393 37.681,124.786 37.364 C 124.179 37.048,123.067 36.673,122.315 36.532 C 121.564 36.391,120.949 36.120,120.949 35.929 C 120.949 35.738,120.237 35.469,119.368 35.330 C 118.498 35.191,117.787 34.933,117.787 34.756 C 117.787 34.580,116.986 34.316,116.008 34.169 C 115.030 34.022,114.229 33.747,114.229 33.557 C 114.229 33.366,113.518 33.097,112.648 32.958 C 111.779 32.819,111.067 32.570,111.067 32.405 C 111.067 32.239,110.445 31.987,109.684 31.844 C 108.923 31.702,108.300 31.435,108.300 31.252 C 108.300 31.069,107.500 30.800,106.522 30.653 C 105.543 30.506,104.743 30.227,104.743 30.033 C 104.743 29.839,104.076 29.557,103.261 29.408 C 102.446 29.258,101.652 28.938,101.497 28.698 C 101.108 28.096,91.379 28.100,90.993 28.702 C 90.838 28.944,90.273 29.279,89.737 29.447 C 88.479 29.840,85.571 32.748,85.178 34.006 C 85.011 34.542,84.675 35.107,84.433 35.262 C 84.185 35.421,83.931 37.021,83.853 38.918 C 83.776 40.774,83.580 42.292,83.418 42.292 C 83.256 42.292,82.994 48.293,82.836 55.627 C 82.679 62.961,82.411 69.053,82.241 69.165 C 82.071 69.276,81.810 70.035,81.660 70.850 C 81.510 71.665,81.217 72.332,81.010 72.332 C 80.802 72.332,80.632 72.604,80.632 72.937 C 80.632 73.270,80.382 73.639,80.075 73.756 C 79.769 73.874,79.420 74.358,79.301 74.831 C 79.100 75.632,78.258 76.274,76.581 76.906 C 76.201 77.050,75.889 77.316,75.889 77.499 C 75.889 77.681,75.222 77.952,74.407 78.102 C 73.592 78.252,72.830 78.520,72.714 78.698 C 72.597 78.875,66.772 79.144,59.769 79.296 C 52.766 79.448,47.036 79.705,47.036 79.868 C 47.036 80.030,45.250 80.224,43.068 80.299 C 40.727 80.379,38.985 80.616,38.819 80.876 C 38.664 81.118,38.099 81.453,37.563 81.621 C 36.305 82.014,33.397 84.922,33.004 86.180 C 32.837 86.716,32.501 87.281,32.259 87.436 C 31.650 87.826,31.654 97.553,32.264 97.939 C 32.509 98.094,32.836 98.977,32.990 99.901 C 33.145 100.825,33.431 101.581,33.627 101.581 C 33.823 101.581,34.097 102.292,34.236 103.162 C 34.375 104.032,34.624 104.743,34.789 104.743 C 34.955 104.743,35.207 105.366,35.349 106.126 C 35.492 106.887,35.759 107.510,35.941 107.510 C 36.124 107.510,36.394 108.310,36.541 109.289 C 36.687 110.267,36.959 111.067,37.144 111.067 C 37.329 111.067,37.600 111.779,37.747 112.648 C 37.894 113.518,38.156 114.229,38.330 114.229 C 38.503 114.229,38.765 115.030,38.912 116.008 C 39.059 116.986,39.338 117.787,39.532 117.787 C 39.726 117.787,40.008 118.454,40.158 119.269 C 40.308 120.084,40.555 120.840,40.708 120.949 C 40.860 121.057,41.110 121.657,41.263 122.281 C 41.519 123.327,41.491 123.366,40.900 122.775 C 39.717 121.592,39.246 122.012,38.964 124.506 C 38.817 125.810,38.546 126.877,38.363 126.877 C 38.180 126.877,37.914 127.340,37.772 127.906 C 37.495 129.011,33.996 132.806,33.254 132.806 C 33.008 132.806,32.806 132.970,32.806 133.170 C 32.806 133.370,32.273 133.651,31.621 133.794 C 30.968 133.938,30.435 134.205,30.435 134.387 C 30.435 134.570,29.901 134.837,29.249 134.980 C 28.597 135.123,28.063 135.402,28.063 135.600 C 28.063 135.797,27.352 136.073,26.482 136.212 C 25.613 136.351,24.901 136.606,24.901 136.778 C 24.901 136.950,24.368 137.209,23.715 137.352 C 23.063 137.495,22.530 137.762,22.530 137.945 C 22.530 138.128,21.996 138.394,21.344 138.538 C 20.692 138.681,20.158 138.939,20.158 139.111 C 20.158 139.284,19.447 139.538,18.577 139.677 C 17.708 139.817,16.996 140.087,16.996 140.278 C 16.996 140.469,16.509 140.748,15.913 140.898 C 15.317 141.047,14.739 141.289,14.628 141.434 C 14.309 141.855,11.765 143.031,10.573 143.310 C 9.975 143.450,9.486 143.723,9.486 143.916 C 9.486 144.110,9.310 144.269,9.094 144.269 C 8.419 144.269,5.534 145.626,5.534 145.943 C 5.534 146.109,5.335 146.245,5.092 146.245 C 4.517 146.245,1.581 149.181,1.581 149.756 C 1.581 149.999,1.412 150.198,1.204 150.198 C 0.515 150.198,0.004 153.116,0.002 157.069 C 0.000 160.857,0.568 164.032,1.248 164.032 C 1.431 164.032,1.581 164.295,1.581 164.616 C 1.581 164.937,3.003 166.582,4.741 168.272 C 6.478 169.962,7.901 171.476,7.903 171.638 C 7.904 171.799,9.684 173.687,11.858 175.832 C 14.032 177.977,15.810 179.892,15.810 180.086 C 15.810 180.281,17.319 181.951,19.163 183.797 C 21.007 185.644,22.519 187.357,22.523 187.606 C 22.527 187.854,22.793 188.159,23.115 188.283 C 23.438 188.406,23.816 189.226,23.956 190.103 C 24.097 190.981,24.367 191.700,24.556 191.700 C 24.746 191.700,24.901 192.945,24.901 194.466 C 24.901 195.988,24.743 197.233,24.550 197.233 C 24.357 197.233,24.082 197.856,23.939 198.617 C 23.796 199.377,23.522 200.000,23.329 200.000 C 23.136 200.000,22.861 200.368,22.719 200.817 C 22.576 201.267,21.141 202.932,19.530 204.517 C 17.919 206.102,16.601 207.525,16.601 207.680 C 16.601 207.834,15.044 209.549,13.142 211.492 C 9.318 215.396,8.696 216.079,8.696 216.370 C 8.696 216.478,7.228 218.046,5.435 219.855 C 0.103 225.230,-0.139 225.803,0.071 232.547 C 0.202 236.772,0.344 237.720,0.905 238.131 C 1.277 238.402,1.581 238.806,1.581 239.028 C 1.581 239.724,4.678 242.656,5.678 242.907 C 6.203 243.039,7.130 243.666,7.738 244.301 C 8.346 244.935,9.077 245.455,9.362 245.455 C 9.648 245.455,9.881 245.610,9.881 245.799 C 9.881 245.989,10.593 246.258,11.462 246.397 C 12.332 246.536,13.043 246.811,13.043 247.009 C 13.043 247.206,13.577 247.485,14.229 247.628 C 14.881 247.772,15.417 248.008,15.420 248.154 C 15.422 248.300,16.178 248.756,17.099 249.167 C 20.241 250.570,23.913 252.371,24.111 252.607 C 24.219 252.737,24.842 252.965,25.494 253.115 C 26.761 253.406,29.315 254.569,29.648 255.008 C 29.759 255.154,30.337 255.396,30.933 255.545 C 31.528 255.695,32.016 255.967,32.016 256.151 C 32.016 256.335,32.655 256.606,33.437 256.753 C 34.992 257.044,37.306 259.076,37.767 260.553 C 37.924 261.053,38.249 261.589,38.490 261.744 C 39.088 262.126,39.085 269.102,38.487 269.480 C 38.242 269.636,37.915 270.519,37.761 271.443 C 37.606 272.367,37.320 273.123,37.124 273.123 C 36.928 273.123,36.654 273.834,36.515 274.704 C 36.376 275.573,36.127 276.285,35.962 276.285 C 35.796 276.285,35.544 276.907,35.402 277.668 C 35.259 278.429,34.989 279.051,34.802 279.051 C 34.615 279.051,34.339 279.941,34.190 281.028 C 34.040 282.115,33.777 283.004,33.604 283.004 C 33.431 283.004,33.173 283.626,33.030 284.387 C 32.887 285.148,32.621 285.771,32.438 285.771 C 32.255 285.771,31.986 286.571,31.839 287.549 C 31.692 288.528,31.407 289.328,31.206 289.328 C 31.004 289.328,30.726 290.040,30.587 290.909 C 30.448 291.779,30.179 292.490,29.989 292.490 C 29.799 292.490,29.643 292.801,29.642 293.182 C 29.640 293.562,29.339 294.407,28.972 295.059 C 28.151 296.518,27.949 304.973,28.724 305.453 C 28.978 305.610,29.309 306.226,29.458 306.822 C 29.608 307.418,29.877 307.905,30.056 307.905 C 30.235 307.905,30.500 308.278,30.645 308.735 C 30.982 309.796,32.101 310.916,33.163 311.252 C 33.619 311.397,33.992 311.667,33.992 311.853 C 33.992 312.038,34.560 312.315,35.254 312.467 C 35.948 312.620,36.762 312.990,37.061 313.289 C 37.361 313.589,37.934 313.834,38.335 313.834 C 38.736 313.834,39.139 314.056,39.229 314.328 C 39.350 314.689,41.165 314.860,45.981 314.962 C 49.605 315.038,52.569 315.234,52.569 315.396 C 52.569 315.558,57.233 315.790,62.933 315.913 C 69.871 316.061,73.344 316.277,73.440 316.566 C 73.519 316.802,73.916 316.996,74.321 316.996 C 75.131 316.996,77.121 318.942,77.938 320.532 C 78.224 321.087,78.606 321.650,78.788 321.783 C 78.970 321.916,79.218 323.473,79.339 325.242 C 79.460 327.011,79.687 328.458,79.842 328.458 C 79.997 328.458,80.255 334.728,80.414 342.390 C 80.574 350.053,80.841 356.412,81.007 356.521 C 81.173 356.630,81.432 357.386,81.581 358.202 C 81.731 359.017,82.024 359.684,82.231 359.684 C 82.439 359.684,82.609 359.956,82.609 360.289 C 82.609 360.622,82.859 360.991,83.166 361.108 C 83.472 361.226,83.831 361.754,83.964 362.282 C 84.096 362.809,84.470 363.241,84.794 363.241 C 85.118 363.241,85.688 363.597,86.060 364.032 C 86.432 364.466,86.964 364.822,87.242 364.822 C 87.520 364.822,87.747 364.977,87.747 365.167 C 87.747 365.356,88.498 365.632,89.415 365.778 C 90.332 365.925,91.215 366.259,91.377 366.521 C 91.772 367.159,100.698 367.187,101.101 366.552 C 101.256 366.307,101.961 365.982,102.668 365.829 C 103.375 365.675,103.953 365.406,103.953 365.231 C 103.953 365.055,104.753 364.792,105.731 364.645 C 106.709 364.498,107.510 364.214,107.510 364.012 C 107.510 363.811,108.221 363.532,109.091 363.393 C 109.960 363.254,110.672 362.996,110.672 362.820 C 110.672 362.643,111.472 362.379,112.451 362.232 C 113.429 362.086,114.229 361.810,114.229 361.620 C 114.229 361.430,114.941 361.160,115.810 361.021 C 116.680 360.882,117.391 360.633,117.391 360.468 C 117.391 360.302,118.014 360.050,118.775 359.908 C 119.536 359.765,120.158 359.498,120.158 359.316 C 120.158 359.133,120.958 358.863,121.937 358.716 C 122.915 358.570,123.715 358.291,123.715 358.096 C 123.715 357.902,124.382 357.621,125.198 357.471 C 126.013 357.321,126.797 357.017,126.940 356.797 C 127.334 356.188,133.689 356.208,133.893 356.818 C 133.984 357.090,134.288 357.312,134.570 357.312 C 135.367 357.312,138.291 360.338,138.570 361.452 C 138.708 362.001,138.965 362.451,139.142 362.451 C 139.318 362.451,139.580 362.984,139.723 363.636 C 139.867 364.289,140.133 364.822,140.316 364.822 C 140.499 364.822,140.766 365.356,140.909 366.008 C 141.052 366.660,141.331 367.194,141.529 367.194 C 141.726 367.194,142.002 367.905,142.141 368.775 C 142.280 369.644,142.535 370.356,142.707 370.356 C 142.879 370.356,143.137 370.889,143.281 371.542 C 143.424 372.194,143.691 372.727,143.874 372.727 C 144.056 372.727,144.323 373.261,144.466 373.913 C 144.610 374.565,144.876 375.099,145.059 375.099 C 145.385 375.099,146.074 377.379,145.925 377.964 C 145.884 378.127,146.014 378.261,146.214 378.261 C 146.414 378.261,146.695 378.794,146.838 379.447 C 146.981 380.099,147.262 380.632,147.462 380.632 C 147.662 380.632,147.826 380.899,147.826 381.225 C 147.826 381.551,147.996 381.818,148.203 381.818 C 148.411 381.818,148.698 382.441,148.840 383.202 C 148.983 383.962,149.258 384.585,149.451 384.585 C 149.644 384.585,149.808 384.807,149.816 385.079 C 149.823 385.351,150.173 386.285,150.593 387.154 C 151.013 388.024,151.363 388.860,151.370 389.013 C 151.400 389.633,155.434 393.290,156.339 393.517 C 156.874 393.652,157.312 393.894,157.312 394.056 C 157.312 395.615,169.901 395.373,170.869 393.795 C 171.043 393.512,171.369 393.281,171.593 393.281 C 171.817 393.281,173.067 392.213,174.372 390.909 C 175.676 389.605,176.951 388.529,177.206 388.519 C 177.460 388.509,178.024 388.050,178.458 387.499 C 178.893 386.948,180.011 385.756,180.942 384.850 C 181.873 383.943,183.192 382.624,183.871 381.917 C 184.551 381.210,185.271 380.632,185.471 380.632 C 185.671 380.632,187.436 379.032,189.392 377.075 C 191.349 375.119,193.121 373.518,193.332 373.518 C 193.542 373.518,194.125 373.074,194.628 372.531 C 195.132 371.988,196.101 371.432,196.784 371.295 C 197.466 371.159,198.024 370.892,198.024 370.702 C 198.024 370.511,199.447 370.356,201.186 370.356 C 202.925 370.356,204.348 370.519,204.348 370.720 C 204.348 370.920,204.881 371.201,205.534 371.344 C 206.186 371.487,206.719 371.768,206.719 371.968 C 206.719 372.168,206.911 372.332,207.146 372.332 C 207.380 372.332,209.010 373.755,210.768 375.494 C 212.526 377.233,214.102 378.656,214.271 378.656 C 214.440 378.656,216.209 380.257,218.203 382.213 C 220.198 384.170,222.076 385.771,222.377 385.771 C 222.678 385.771,222.925 385.909,222.925 386.079 C 222.925 386.642,228.900 392.490,229.475 392.490 C 229.785 392.490,230.040 392.650,230.040 392.845 C 230.040 394.904,242.595 396.066,243.851 394.124 C 243.972 393.936,244.499 393.649,245.022 393.485 C 246.105 393.147,247.826 391.435,247.826 390.696 C 247.826 390.425,248.093 390.101,248.419 389.976 C 248.745 389.851,249.012 389.476,249.012 389.143 C 249.012 388.810,249.182 388.538,249.389 388.538 C 249.597 388.538,249.883 387.915,250.026 387.154 C 250.169 386.393,250.436 385.771,250.619 385.771 C 250.802 385.771,251.069 385.148,251.212 384.387 C 251.355 383.626,251.590 383.004,251.734 383.004 C 251.879 383.004,252.348 382.205,252.777 381.229 C 253.206 380.253,253.689 379.452,253.849 379.450 C 254.010 379.448,254.255 378.735,254.394 377.866 C 254.533 376.996,254.787 376.285,254.960 376.285 C 255.132 376.285,255.390 375.751,255.534 375.099 C 255.677 374.447,255.944 373.913,256.126 373.913 C 256.309 373.913,256.576 373.379,256.719 372.727 C 256.863 372.075,257.141 371.542,257.339 371.542 C 257.537 371.542,257.812 370.830,257.951 369.960 C 258.090 369.091,258.345 368.379,258.517 368.379 C 258.689 368.379,258.948 367.846,259.091 367.194 C 259.234 366.542,259.501 366.008,259.684 366.008 C 259.867 366.008,260.133 365.474,260.277 364.822 C 260.420 364.170,260.682 363.636,260.858 363.636 C 261.035 363.636,261.289 363.198,261.423 362.663 C 261.721 361.477,265.247 357.875,266.491 357.487 C 266.986 357.332,267.506 357.027,267.646 356.809 C 268.023 356.221,274.663 356.213,275.026 356.800 C 275.188 357.061,276.071 357.395,276.988 357.542 C 277.906 357.689,278.656 357.956,278.656 358.135 C 278.656 358.315,279.279 358.579,280.040 358.722 C 280.800 358.864,281.423 359.119,281.423 359.288 C 281.423 359.456,282.251 359.718,283.263 359.870 C 284.275 360.022,285.355 360.398,285.663 360.705 C 285.971 361.013,286.654 361.265,287.182 361.265 C 287.710 361.265,288.142 361.420,288.142 361.610 C 288.142 361.799,288.854 362.068,289.723 362.207 C 290.593 362.346,291.304 362.625,291.304 362.826 C 291.304 363.028,292.105 363.313,293.083 363.459 C 294.061 363.606,294.862 363.876,294.862 364.059 C 294.862 364.241,295.484 364.508,296.245 364.651 C 297.006 364.793,297.628 365.045,297.628 365.211 C 297.628 365.376,298.379 365.632,299.296 365.778 C 300.214 365.925,301.097 366.259,301.259 366.521 C 301.651 367.155,310.578 367.187,310.983 366.555 C 311.138 366.313,311.670 365.988,312.166 365.833 C 313.409 365.445,316.935 361.844,317.233 360.657 C 317.367 360.122,317.627 359.684,317.810 359.684 C 317.993 359.684,318.263 358.617,318.411 357.312 C 318.558 356.008,318.810 354.941,318.970 354.941 C 319.130 354.941,319.392 348.226,319.553 340.020 C 319.714 331.813,319.977 325.010,320.137 324.901 C 320.298 324.792,320.533 324.167,320.661 323.510 C 320.972 321.904,325.462 317.415,327.068 317.103 C 327.724 316.976,328.368 316.709,328.500 316.509 C 328.631 316.310,333.478 316.044,339.271 315.917 C 345.063 315.791,349.802 315.556,349.802 315.394 C 349.802 315.233,352.744 315.038,356.339 314.962 C 360.570 314.871,362.974 314.667,363.157 314.381 C 363.312 314.139,363.844 313.814,364.340 313.659 C 365.493 313.299,369.023 309.782,369.389 308.627 C 369.543 308.141,369.913 307.501,370.210 307.204 C 370.508 306.906,370.751 306.335,370.751 305.934 C 370.751 305.532,370.958 305.135,371.211 305.051 C 371.869 304.831,371.887 296.360,371.229 296.141 C 370.966 296.053,370.638 295.285,370.502 294.433 C 370.366 293.582,370.119 292.885,369.954 292.885 C 369.789 292.885,369.536 292.263,369.394 291.502 C 369.251 290.741,368.985 290.119,368.802 290.119 C 368.619 290.119,368.349 289.318,368.202 288.340 C 368.056 287.362,367.792 286.561,367.615 286.561 C 367.439 286.561,367.181 285.850,367.042 284.980 C 366.903 284.111,366.634 283.399,366.443 283.399 C 366.253 283.399,365.978 282.599,365.831 281.621 C 365.684 280.642,365.399 279.842,365.198 279.842 C 364.996 279.842,364.718 279.130,364.579 278.261 C 364.440 277.391,364.191 276.680,364.025 276.680 C 363.860 276.680,363.608 276.057,363.465 275.296 C 363.322 274.536,363.058 273.913,362.878 273.913 C 362.699 273.913,362.432 273.162,362.285 272.245 C 362.138 271.328,361.805 270.445,361.544 270.284 C 361.229 270.089,361.070 268.701,361.069 266.122 L 361.067 262.253 363.157 260.182 C 364.307 259.042,365.685 258.000,366.221 257.866 C 366.756 257.732,367.194 257.477,367.194 257.301 C 367.194 257.124,367.727 256.863,368.379 256.719 C 369.032 256.576,369.565 256.297,369.565 256.100 C 369.565 255.902,370.277 255.627,371.146 255.488 C 372.016 255.349,372.727 255.094,372.727 254.922 C 372.727 254.749,373.261 254.491,373.913 254.348 C 374.565 254.205,375.099 253.938,375.099 253.755 C 375.099 253.572,375.632 253.305,376.285 253.162 C 376.937 253.019,377.470 252.752,377.470 252.569 C 377.470 252.386,378.015 252.117,378.682 251.971 C 379.897 251.704,386.191 248.683,386.561 248.189 C 386.670 248.044,387.337 247.800,388.043 247.647 C 388.750 247.493,389.328 247.212,389.328 247.022 C 389.328 246.832,389.951 246.559,390.711 246.417 C 391.472 246.274,392.095 246.018,392.095 245.849 C 392.095 245.679,392.536 245.429,393.075 245.294 C 394.340 244.977,396.755 242.562,397.073 241.297 C 397.208 240.757,397.477 240.316,397.671 240.316 C 397.865 240.316,398.024 240.062,398.024 239.752 C 398.024 239.441,398.274 238.936,398.580 238.630 C 400.323 236.888,400.485 225.296,398.767 225.296 C 398.576 225.296,398.418 225.074,398.417 224.802 C 398.416 224.531,397.883 223.740,397.231 223.045 C 396.580 222.350,396.047 221.655,396.047 221.500 C 396.047 221.345,394.269 219.488,392.095 217.372 C 389.921 215.257,388.142 213.359,388.142 213.155 C 388.142 212.951,386.453 211.084,384.387 209.005 C 382.322 206.926,380.632 205.103,380.632 204.953 C 380.632 204.803,379.832 203.880,378.854 202.902 C 377.875 201.924,377.075 200.890,377.075 200.604 C 377.075 200.318,376.808 199.982,376.482 199.857 C 376.156 199.732,375.889 199.194,375.889 198.662 C 375.889 198.130,375.692 197.629,375.451 197.548 C 374.675 197.290,374.792 192.345,375.593 191.544 C 375.973 191.164,376.285 190.696,376.285 190.505 C 376.285 190.314,378.063 188.387,380.237 186.224 C 382.411 184.060,384.190 182.126,384.190 181.925 C 384.190 181.724,385.791 179.936,387.747 177.952 C 389.704 175.967,391.304 174.252,391.304 174.142 C 391.304 174.031,392.549 172.707,394.071 171.200 C 395.593 169.694,396.838 168.287,396.838 168.073 C 396.838 167.860,397.086 167.480,397.389 167.228 C 397.693 166.976,398.053 166.172,398.190 165.441 C 398.328 164.709,398.745 163.515,399.117 162.787 C 400.472 160.136,400.083 150.617,398.596 150.047 C 398.281 149.926,398.024 149.630,398.024 149.389 C 398.024 148.837,395.852 146.640,395.307 146.640 C 395.084 146.640,394.759 146.418,394.585 146.146 C 394.117 145.414,391.897 144.269,390.947 144.269 C 390.491 144.269,390.119 144.105,390.119 143.905 C 390.119 143.705,389.585 143.424,388.933 143.281 C 388.281 143.137,387.747 142.856,387.747 142.656 C 387.747 142.456,387.522 142.292,387.247 142.292 C 386.972 142.292,386.083 141.937,385.272 141.502 C 384.461 141.067,383.441 140.711,383.005 140.711 C 382.570 140.711,382.213 140.548,382.213 140.348 C 382.213 140.147,381.680 139.867,381.028 139.723 C 380.375 139.580,379.842 139.313,379.842 139.130 C 379.842 138.948,379.308 138.681,378.656 138.538 C 378.004 138.394,377.470 138.113,377.470 137.913 C 377.470 137.713,377.159 137.543,376.779 137.536 C 376.398 137.529,375.375 137.179,374.506 136.759 C 373.636 136.339,372.703 135.989,372.431 135.982 C 372.159 135.974,371.937 135.805,371.937 135.605 C 371.937 135.404,371.403 135.123,370.751 134.980 C 370.099 134.837,369.565 134.576,369.565 134.400 C 369.565 134.224,368.943 133.963,368.182 133.821 C 367.421 133.678,366.798 133.403,366.798 133.210 C 366.798 133.017,366.415 132.738,365.946 132.589 C 364.916 132.262,363.241 130.526,363.241 129.784 C 363.241 129.490,363.073 129.249,362.867 129.249 C 362.662 129.249,362.260 128.760,361.974 128.162 C 361.669 127.523,361.071 127.021,360.524 126.943 C 359.584 126.809,359.514 123.936,360.436 123.332 C 360.612 123.217,360.878 122.456,361.028 121.640 C 361.178 120.825,361.460 120.158,361.654 120.158 C 361.848 120.158,362.127 119.358,362.274 118.379 C 362.420 117.401,362.698 116.601,362.891 116.601 C 363.083 116.601,363.241 116.196,363.241 115.701 C 363.241 115.205,363.502 114.428,363.821 113.972 C 364.140 113.516,364.519 112.410,364.662 111.513 C 364.806 110.615,365.070 109.881,365.250 109.881 C 365.430 109.881,365.694 109.259,365.836 108.498 C 365.979 107.737,366.231 107.115,366.397 107.115 C 366.562 107.115,366.811 106.403,366.950 105.534 C 367.089 104.664,367.368 103.953,367.569 103.953 C 367.771 103.953,368.056 103.152,368.202 102.174 C 368.349 101.196,368.607 100.395,368.776 100.395 C 368.944 100.395,369.196 99.786,369.336 99.041 C 369.476 98.296,369.807 97.614,370.072 97.525 C 370.734 97.305,370.752 88.236,370.091 87.827 C 369.836 87.670,369.509 87.067,369.363 86.487 C 369.218 85.907,368.848 85.336,368.541 85.219 C 368.235 85.101,367.984 84.809,367.984 84.569 C 367.984 84.055,367.001 83.004,366.519 83.004 C 366.335 83.004,365.879 82.648,365.507 82.213 C 365.134 81.779,364.576 81.423,364.266 81.423 C 363.956 81.423,363.629 81.204,363.540 80.937 C 363.430 80.605,361.987 80.404,358.962 80.301 C 356.533 80.218,354.545 80.019,354.545 79.860 C 354.545 79.700,348.814 79.444,341.809 79.290 C 334.804 79.136,328.979 78.864,328.864 78.685 C 328.750 78.506,328.078 78.235,327.372 78.081 C 326.665 77.928,326.087 77.639,326.087 77.439 C 326.087 77.239,325.857 77.075,325.576 77.075 C 324.935 77.075,321.739 73.853,321.739 73.206 C 321.739 72.943,321.581 72.727,321.387 72.727 C 321.193 72.727,320.912 72.240,320.762 71.644 C 320.613 71.049,320.295 70.440,320.055 70.292 C 319.764 70.112,319.560 66.726,319.442 60.110 C 319.345 54.658,319.127 50.198,318.959 50.198 C 318.791 50.198,318.592 46.989,318.517 43.068 C 318.423 38.182,318.234 35.849,317.917 35.653 C 317.662 35.496,317.335 34.893,317.189 34.313 C 317.044 33.733,316.674 33.163,316.367 33.045 C 316.061 32.927,315.810 32.635,315.810 32.395 C 315.810 31.881,314.827 30.830,314.345 30.830 C 314.161 30.830,313.705 30.474,313.333 30.040 C 312.961 29.605,312.402 29.249,312.092 29.249 C 311.782 29.249,311.454 29.027,311.364 28.755 C 311.143 28.094,301.291 28.048,300.875 28.707 C 300.720 28.952,299.837 29.279,298.913 29.433 C 297.989 29.587,297.233 29.874,297.233 30.070 C 297.233 30.265,296.522 30.539,295.652 30.678 C 294.783 30.817,294.071 31.075,294.071 31.252 C 294.071 31.428,293.271 31.692,292.292 31.839 C 291.314 31.986,290.514 32.255,290.514 32.438 C 290.514 32.621,289.891 32.887,289.130 33.030 C 288.370 33.173,287.747 33.425,287.747 33.590 C 287.747 33.756,287.036 34.005,286.166 34.144 C 285.296 34.283,284.585 34.552,284.585 34.742 C 284.585 34.933,283.785 35.208,282.806 35.355 C 281.828 35.502,281.028 35.786,281.028 35.988 C 281.028 36.189,280.316 36.468,279.447 36.607 C 278.577 36.746,277.866 37.004,277.866 37.180 C 277.866 37.357,277.065 37.621,276.087 37.768 C 275.109 37.914,274.308 38.192,274.308 38.385 C 274.308 38.578,272.974 38.735,271.344 38.735 C 269.631 38.735,268.379 38.568,268.379 38.340 C 268.379 38.123,267.929 37.945,267.379 37.945 C 266.829 37.945,266.276 37.678,266.151 37.352 C 266.026 37.026,265.697 36.759,265.420 36.759 C 264.631 36.759,261.708 33.726,261.430 32.619 C 261.292 32.070,261.035 31.621,260.858 31.621 C 260.682 31.621,260.420 31.087,260.277 30.435 C 260.133 29.783,259.875 29.249,259.703 29.249 C 259.531 29.249,259.276 28.538,259.137 27.668 C 258.998 26.798,258.722 26.087,258.525 26.087 C 258.327 26.087,258.048 25.553,257.905 24.901 C 257.762 24.249,257.495 23.715,257.312 23.715 C 257.129 23.715,256.863 23.182,256.719 22.530 C 256.576 21.877,256.295 21.344,256.095 21.344 C 255.895 21.344,255.731 20.987,255.731 20.552 C 255.731 20.116,255.375 19.096,254.941 18.285 C 254.506 17.474,254.150 16.600,254.150 16.343 C 254.150 16.086,254.017 15.817,253.854 15.744 C 253.424 15.553,252.174 13.078,252.174 12.419 C 252.174 12.110,252.010 11.858,251.810 11.858 C 251.610 11.858,251.329 11.324,251.186 10.672 C 251.043 10.020,250.762 9.486,250.561 9.486 C 250.361 9.486,250.192 9.264,250.184 8.992 C 250.177 8.720,249.827 7.787,249.407 6.917 C 248.987 6.047,248.637 5.216,248.630 5.070 C 248.605 4.565,245.327 1.581,244.799 1.581 C 244.507 1.581,244.269 1.424,244.269 1.233 C 244.269 0.637,240.897 0.000,237.747 -0.000 C 234.656 -0.000,231.225 0.635,231.225 1.206 C 231.225 1.383,230.861 1.643,230.416 1.785 C 229.567 2.054,224.111 7.410,224.111 7.974 C 224.111 8.154,223.867 8.300,223.570 8.300 C 223.273 8.300,221.307 9.990,219.201 12.055 C 217.095 14.121,215.225 15.810,215.045 15.810 C 214.866 15.810,213.230 17.288,211.411 19.095 C 209.591 20.901,207.792 22.496,207.411 22.640 C 207.031 22.783,206.719 23.081,206.719 23.303 C 206.719 23.525,206.008 23.820,205.138 23.959 C 204.269 24.098,203.557 24.367,203.557 24.556 C 203.557 25.010,198.925 25.005,198.644 24.551 C 198.525 24.358,197.803 24.083,197.039 23.940 C 196.106 23.765,194.914 22.972,193.407 21.523 C 192.173 20.338,191.031 19.368,190.871 19.368 C 190.710 19.368,188.977 17.767,187.021 15.810 C 185.064 13.854,183.283 12.253,183.064 12.253 C 182.844 12.253,181.939 11.497,181.052 10.573 C 180.166 9.649,178.460 7.871,177.262 6.621 C 176.063 5.371,174.917 4.348,174.714 4.348 C 174.512 4.348,173.742 3.725,173.003 2.964 C 172.264 2.204,171.455 1.581,171.205 1.581 C 170.955 1.581,170.751 1.418,170.751 1.219 C 170.751 0.190,162.524 -0.354,159.100 0.448 M97.123 148.024 C 97.610 148.893,98.132 149.872,98.283 150.198 C 98.435 150.524,98.661 150.879,98.785 150.988 C 99.145 151.302,99.887 152.603,100.983 154.842 C 101.542 155.983,102.151 156.917,102.337 156.917 C 102.523 156.917,102.779 157.228,102.906 157.609 C 103.169 158.397,105.103 161.882,106.189 163.526 C 107.464 165.456,107.899 166.181,108.389 167.194 C 108.651 167.737,109.229 168.715,109.671 169.368 C 110.825 171.068,111.313 171.891,112.435 174.036 C 113.975 176.978,115.415 177.740,115.415 175.613 C 115.415 175.330,115.572 175.099,115.764 175.099 C 115.956 175.099,116.218 174.788,116.346 174.407 C 116.581 173.705,116.801 173.326,118.553 170.608 C 120.011 168.346,120.513 167.468,120.791 166.700 C 120.928 166.319,121.177 166.008,121.344 166.008 C 121.511 166.008,121.756 165.697,121.890 165.316 C 122.023 164.936,122.573 163.913,123.112 163.043 C 123.651 162.174,124.206 161.151,124.345 160.771 C 124.484 160.390,124.741 160.079,124.916 160.079 C 125.091 160.079,125.351 159.545,125.494 158.893 C 125.637 158.241,125.887 157.708,126.048 157.708 C 126.210 157.708,126.742 156.907,127.230 155.929 C 127.719 154.951,128.265 154.150,128.443 154.150 C 128.622 154.150,128.886 153.681,129.030 153.108 C 129.173 152.535,129.700 151.512,130.200 150.835 C 130.700 150.158,131.222 149.338,131.362 149.012 C 131.759 148.084,132.570 146.866,133.004 146.548 C 133.479 146.199,156.522 146.140,156.522 146.488 C 156.522 146.790,154.826 149.928,154.517 150.198 C 154.392 150.306,154.161 150.662,154.004 150.988 C 153.846 151.314,153.281 152.292,152.747 153.162 C 152.213 154.032,151.667 155.054,151.534 155.435 C 151.400 155.815,151.155 156.126,150.988 156.126 C 150.821 156.126,150.576 156.438,150.442 156.818 C 150.309 157.199,149.759 158.221,149.220 159.091 C 148.681 159.960,148.126 160.983,147.987 161.364 C 147.848 161.744,147.598 162.055,147.431 162.055 C 147.264 162.055,147.019 162.367,146.885 162.747 C 146.752 163.127,146.202 164.150,145.663 165.020 C 145.124 165.889,144.569 166.912,144.430 167.292 C 144.291 167.673,144.040 167.984,143.874 167.984 C 143.707 167.984,143.461 168.295,143.328 168.676 C 143.194 169.056,142.648 170.079,142.115 170.949 C 141.581 171.818,141.021 172.796,140.869 173.123 C 140.718 173.449,140.221 174.249,139.764 174.901 C 139.307 175.553,138.578 176.798,138.143 177.668 C 137.709 178.538,137.131 179.484,136.859 179.771 C 136.586 180.059,136.364 180.548,136.364 180.858 C 136.364 181.169,136.207 181.423,136.014 181.423 C 135.822 181.423,135.551 181.734,135.412 182.115 C 135.273 182.495,134.718 183.518,134.179 184.387 C 133.640 185.257,133.090 186.280,132.957 186.660 C 132.823 187.041,132.578 187.352,132.411 187.352 C 132.244 187.352,131.994 187.663,131.855 188.043 C 131.716 188.424,131.161 189.447,130.622 190.316 C 130.083 191.186,129.533 192.208,129.399 192.589 C 129.266 192.969,129.020 193.281,128.854 193.281 C 128.687 193.281,128.438 193.592,128.301 193.972 C 128.163 194.353,127.780 195.109,127.450 195.652 C 126.658 196.957,126.964 198.857,128.235 200.523 C 128.793 201.255,129.249 202.064,129.249 202.322 C 129.249 202.580,129.505 202.890,129.818 203.010 C 130.131 203.130,130.500 203.747,130.640 204.381 C 130.779 205.015,131.025 205.534,131.187 205.534 C 131.348 205.534,131.880 206.334,132.369 207.312 C 132.857 208.291,133.408 209.091,133.593 209.091 C 133.778 209.091,134.044 209.612,134.184 210.249 C 134.324 210.887,134.694 211.620,135.006 211.879 C 135.318 212.138,135.573 212.595,135.573 212.894 C 135.573 213.194,135.709 213.439,135.875 213.439 C 136.040 213.439,136.352 213.771,136.566 214.176 C 138.452 217.742,139.271 219.199,139.482 219.368 C 139.619 219.476,140.081 220.232,140.509 221.047 C 140.936 221.863,141.410 222.530,141.560 222.530 C 141.711 222.530,141.952 223.063,142.095 223.715 C 142.238 224.368,142.507 224.901,142.691 224.901 C 142.876 224.901,143.427 225.702,143.916 226.680 C 144.404 227.658,144.936 228.458,145.098 228.458 C 145.260 228.458,145.509 228.992,145.652 229.644 C 145.795 230.296,146.072 230.830,146.267 230.830 C 146.461 230.830,146.985 231.630,147.431 232.609 C 147.876 233.587,148.400 234.387,148.595 234.387 C 148.790 234.387,149.066 234.921,149.209 235.573 C 149.353 236.225,149.602 236.759,149.764 236.759 C 149.925 236.759,150.457 237.559,150.946 238.538 C 151.434 239.516,151.985 240.316,152.170 240.316 C 152.355 240.316,152.624 240.850,152.767 241.502 C 152.910 242.154,153.159 242.688,153.321 242.688 C 153.483 242.688,154.015 243.488,154.503 244.466 C 154.992 245.445,155.520 246.245,155.678 246.245 C 155.835 246.245,156.295 247.046,156.699 248.025 C 157.102 249.004,157.672 250.004,157.965 250.248 C 159.185 251.260,157.969 251.383,146.770 251.383 C 134.638 251.383,133.597 251.249,133.597 249.680 C 133.597 249.462,133.152 248.701,132.609 247.989 C 132.066 247.277,131.444 246.282,131.227 245.778 C 130.804 244.798,130.319 243.980,129.039 242.095 C 128.596 241.443,128.019 240.464,127.756 239.921 C 127.234 238.840,126.709 237.975,125.482 236.166 C 125.039 235.514,124.459 234.536,124.193 233.992 C 123.448 232.472,121.653 229.470,121.357 229.249 C 121.211 229.140,120.687 228.251,120.193 227.273 C 118.995 224.904,118.534 224.089,117.367 222.277 C 115.616 219.559,115.396 219.181,115.160 218.478 C 114.733 217.207,113.717 217.925,113.237 219.835 C 113.091 220.416,112.721 220.988,112.415 221.105 C 112.108 221.223,111.858 221.530,111.858 221.788 C 111.858 222.046,111.423 222.828,110.891 223.525 C 110.359 224.223,109.809 225.249,109.669 225.807 C 109.529 226.364,109.164 226.916,108.858 227.034 C 108.551 227.152,108.300 227.448,108.300 227.693 C 108.300 227.938,107.925 228.666,107.466 229.311 C 106.652 230.453,105.223 232.979,104.033 235.375 C 103.709 236.028,103.126 236.917,102.737 237.352 C 102.347 237.787,101.840 238.587,101.608 239.130 C 101.186 240.123,100.369 241.528,100.000 241.897 C 99.689 242.208,98.881 243.566,98.235 244.862 C 97.615 246.106,96.778 247.491,96.443 247.826 C 96.093 248.176,95.266 249.579,94.870 250.494 L 94.486 251.383 82.618 251.383 C 71.738 251.383,69.811 251.220,71.121 250.411 C 71.325 250.285,71.953 249.207,72.516 248.016 C 73.080 246.825,73.699 245.850,73.893 245.850 C 74.087 245.850,74.363 245.316,74.506 244.664 C 74.649 244.012,74.899 243.478,75.060 243.478 C 75.222 243.478,75.754 242.678,76.242 241.700 C 76.731 240.721,77.282 239.921,77.467 239.921 C 77.652 239.921,77.920 239.387,78.063 238.735 C 78.206 238.083,78.456 237.549,78.617 237.549 C 78.779 237.549,79.343 236.743,79.871 235.757 C 81.495 232.724,81.988 231.862,82.807 230.631 C 84.182 228.564,84.576 227.892,85.008 226.877 C 85.239 226.334,85.747 225.534,86.136 225.099 C 86.526 224.664,87.257 223.463,87.761 222.431 C 88.265 221.398,88.810 220.553,88.971 220.553 C 89.133 220.553,89.382 220.020,89.526 219.368 C 89.669 218.715,89.918 218.182,90.080 218.182 C 90.242 218.182,90.773 217.381,91.262 216.403 C 91.751 215.425,92.302 214.625,92.486 214.625 C 92.671 214.625,92.940 214.091,93.083 213.439 C 93.226 212.787,93.476 212.253,93.637 212.253 C 93.799 212.253,94.331 211.453,94.819 210.474 C 95.308 209.496,95.859 208.696,96.044 208.696 C 96.229 208.696,96.497 208.162,96.640 207.510 C 96.784 206.858,97.033 206.324,97.195 206.324 C 97.356 206.324,97.882 205.537,98.362 204.574 C 98.843 203.611,99.364 202.766,99.519 202.696 C 99.675 202.626,100.202 201.769,100.690 200.791 C 101.178 199.812,101.791 198.714,102.052 198.350 C 102.554 197.651,101.984 196.156,100.197 193.478 C 98.855 191.469,98.425 190.755,97.812 189.526 C 97.167 188.230,96.358 186.872,96.047 186.561 C 95.700 186.214,94.906 184.842,93.816 182.708 C 93.234 181.566,92.622 180.632,92.457 180.632 C 92.293 180.632,92.040 180.099,91.897 179.447 C 91.754 178.794,91.486 178.261,91.301 178.261 C 91.116 178.261,90.565 177.460,90.076 176.482 C 89.588 175.504,89.056 174.704,88.894 174.704 C 88.733 174.704,88.483 174.170,88.340 173.518 C 88.197 172.866,87.947 172.332,87.786 172.332 C 87.624 172.332,87.092 171.532,86.604 170.553 C 86.115 169.575,85.594 168.773,85.447 168.772 C 85.299 168.770,84.986 168.370,84.751 167.882 C 83.774 165.858,81.701 162.212,81.213 161.659 C 80.924 161.333,80.498 160.621,80.266 160.078 C 79.818 159.031,79.352 158.242,78.051 156.324 C 77.608 155.672,77.031 154.694,76.768 154.150 C 76.207 152.989,75.621 152.038,74.429 150.350 C 73.951 149.674,73.442 148.651,73.298 148.078 C 73.155 147.505,72.878 147.036,72.684 147.036 C 72.491 147.036,72.332 146.855,72.332 146.635 C 72.332 146.370,76.396 146.269,84.285 146.338 L 96.239 146.443 97.123 148.024 M187.453 177.964 C 187.513 196.084,187.703 209.302,187.897 208.794 C 188.082 208.305,188.396 207.905,188.593 207.905 C 188.791 207.905,189.125 207.505,189.337 207.016 C 189.864 205.796,190.565 204.748,191.502 203.778 C 192.412 202.835,193.118 201.764,193.667 200.494 C 193.879 200.005,194.234 199.605,194.457 199.605 C 194.679 199.605,194.862 199.366,194.862 199.073 C 194.862 198.781,195.217 198.220,195.652 197.826 C 196.087 197.433,196.443 196.886,196.443 196.612 C 196.443 196.338,196.576 196.054,196.739 195.982 C 197.111 195.816,198.814 193.406,198.814 193.046 C 198.814 192.899,199.214 192.391,199.704 191.917 C 200.711 190.942,201.407 189.933,201.967 188.636 C 202.179 188.147,202.513 187.747,202.711 187.747 C 202.908 187.747,203.174 187.436,203.302 187.055 C 203.563 186.277,204.313 185.070,205.011 184.305 C 205.267 184.024,206.053 182.905,206.758 181.818 C 207.462 180.731,208.186 179.842,208.367 179.842 C 208.548 179.842,208.696 179.597,208.696 179.297 C 208.696 178.998,208.981 178.516,209.330 178.227 C 209.678 177.937,210.123 177.337,210.317 176.894 C 210.869 175.631,211.614 174.535,212.154 174.190 C 212.426 174.016,212.648 173.629,212.648 173.329 C 212.648 173.030,213.069 172.454,213.583 172.049 C 214.097 171.645,214.643 170.920,214.796 170.440 C 214.948 169.959,215.239 169.565,215.442 169.565 C 215.644 169.565,215.810 169.361,215.810 169.112 C 215.810 168.863,216.433 167.899,217.194 166.970 C 217.955 166.042,218.577 165.160,218.577 165.010 C 218.577 164.861,219.111 164.065,219.763 163.241 C 220.415 162.418,220.949 161.624,220.949 161.478 C 220.949 161.166,222.964 158.412,223.452 158.057 C 223.778 157.821,224.583 156.532,225.152 155.336 C 225.307 155.010,225.670 154.601,225.958 154.427 C 226.246 154.253,226.482 153.921,226.482 153.689 C 226.482 153.456,227.022 152.620,227.682 151.831 C 228.341 151.041,229.008 150.208,229.164 149.978 C 230.015 148.723,230.476 147.932,230.821 147.134 C 231.203 146.253,231.275 146.245,239.516 146.245 L 247.826 146.245 247.826 198.814 L 247.826 251.383 237.154 251.383 L 226.482 251.383 226.482 219.886 C 226.482 189.854,226.450 188.425,225.791 189.170 C 224.652 190.455,223.320 192.432,223.320 192.836 C 223.320 193.045,223.187 193.274,223.024 193.347 C 222.652 193.512,220.949 195.922,220.949 196.283 C 220.949 196.429,220.548 196.937,220.059 197.411 C 219.052 198.386,218.356 199.395,217.795 200.692 C 217.584 201.181,217.229 201.581,217.006 201.581 C 216.783 201.581,216.601 201.820,216.601 202.113 C 216.601 202.405,216.245 202.966,215.810 203.360 C 215.375 203.753,215.020 204.244,215.020 204.451 C 215.020 204.658,214.486 205.501,213.834 206.324 C 213.182 207.148,212.648 207.942,212.648 208.089 C 212.648 208.236,211.962 209.189,211.124 210.206 C 210.285 211.223,209.486 212.322,209.348 212.648 C 208.927 213.639,208.150 214.726,207.213 215.632 C 206.724 216.106,206.324 216.614,206.324 216.761 C 206.324 217.122,204.621 219.532,204.249 219.697 C 204.086 219.769,203.953 220.053,203.953 220.327 C 203.953 220.602,203.597 221.148,203.162 221.542 C 202.727 221.935,202.372 222.496,202.372 222.789 C 202.372 223.081,202.189 223.320,201.967 223.320 C 201.744 223.320,201.388 223.720,201.177 224.209 C 200.649 225.429,199.949 226.477,199.012 227.448 C 198.102 228.390,197.396 229.461,196.847 230.731 C 196.635 231.220,196.280 231.621,196.057 231.621 C 195.834 231.621,195.652 231.860,195.652 232.152 C 195.652 232.445,195.296 233.006,194.862 233.399 C 194.427 233.793,194.071 234.339,194.071 234.613 C 194.071 234.888,193.938 235.171,193.775 235.244 C 193.612 235.316,192.865 236.265,192.115 237.352 C 191.366 238.439,190.594 239.437,190.400 239.571 C 190.066 239.801,189.320 240.977,188.672 242.292 C 188.329 242.988,188.166 243.208,186.575 245.111 C 185.915 245.901,185.375 246.737,185.375 246.969 C 185.375 247.202,185.153 247.534,184.881 247.708 C 184.327 248.063,183.588 249.165,183.013 250.494 C 182.631 251.376,182.559 251.383,174.318 251.383 L 166.008 251.383 166.008 198.814 L 166.008 146.245 176.677 146.245 L 187.347 146.245 187.453 177.964 M333.004 156.324 L 333.004 166.206 318.874 166.309 L 304.743 166.413 304.743 208.898 L 304.743 251.383 294.071 251.383 L 283.399 251.383 283.399 208.893 L 283.399 166.403 269.368 166.403 L 255.336 166.403 255.336 156.322 L 255.336 146.241 294.170 146.342 L 333.004 146.443 333.004 156.324 " stroke="none" fill="#fcc41c" fill-rule="evenodd"></path><path id="path2" d="" stroke="none" fill="#fce0100" fill-rule="evenodd"></path><path id="path3" d="M72.332 146.536 C 72.332 146.702,77.683 146.788,84.224 146.728 C 95.886 146.620,96.120 146.633,96.325 147.419 C 96.441 147.860,96.714 148.221,96.932 148.221 C 97.151 148.221,97.064 147.821,96.739 147.332 C 96.138 146.426,72.332 145.649,72.332 146.536 M133.004 146.548 C 132.570 146.866,131.759 148.084,131.362 149.012 C 131.222 149.338,130.721 150.138,130.248 150.791 C 129.241 152.180,128.681 153.513,129.254 153.159 C 129.468 153.026,129.644 152.739,129.644 152.519 C 129.644 152.300,130.089 151.538,130.632 150.826 C 131.176 150.113,131.621 149.406,131.621 149.255 C 131.621 149.104,132.010 148.453,132.485 147.810 L 133.350 146.640 144.731 146.640 L 156.111 146.640 155.118 148.419 C 154.572 149.397,154.264 150.193,154.434 150.187 C 154.713 150.177,156.522 146.936,156.522 146.447 C 156.522 146.126,133.443 146.225,133.004 146.548 M166.105 198.913 L 166.203 251.581 166.304 199.111 L 166.406 146.640 176.681 146.640 L 186.957 146.640 186.957 178.294 C 186.957 202.200,187.069 209.910,187.417 209.794 C 188.046 209.584,189.127 207.905,188.632 207.905 C 188.413 207.905,188.082 208.305,187.897 208.794 C 187.703 209.302,187.513 196.084,187.453 177.964 L 187.347 146.245 176.677 146.245 L 166.008 146.245 166.105 198.913 M231.088 146.542 C 230.987 146.705,234.622 146.783,239.166 146.717 L 247.428 146.596 247.530 199.088 L 247.631 251.581 247.729 198.913 L 247.826 146.245 239.549 146.245 C 234.997 146.245,231.189 146.378,231.088 146.542 M255.336 156.322 L 255.336 166.403 269.366 166.403 L 283.396 166.403 283.499 208.893 L 283.602 251.383 283.600 208.794 L 283.597 166.206 269.664 166.102 L 255.731 165.998 255.731 156.319 L 255.731 146.640 294.269 146.640 L 332.806 146.640 332.806 156.319 L 332.806 165.998 318.874 166.109 L 304.941 166.221 318.972 166.213 L 333.004 166.206 333.004 156.324 L 333.004 146.443 294.170 146.342 L 255.336 146.241 255.336 156.322 M73.384 148.518 C 73.487 148.898,74.031 149.743,74.591 150.395 C 75.295 151.215,75.408 151.276,74.955 150.593 C 74.595 150.049,74.129 149.205,73.919 148.715 C 73.467 147.662,73.117 147.532,73.384 148.518 M98.899 151.827 C 99.179 152.288,99.627 153.044,99.895 153.507 C 100.267 154.147,100.385 154.195,100.389 153.705 C 100.393 153.351,100.128 152.840,99.802 152.569 C 99.476 152.299,99.209 151.832,99.209 151.533 C 99.209 151.233,99.025 150.988,98.800 150.988 C 98.549 150.988,98.588 151.312,98.899 151.827 M227.299 152.343 C 226.803 152.871,226.491 153.538,226.606 153.826 C 226.768 154.231,226.822 154.221,226.846 153.780 C 226.863 153.468,227.264 152.801,227.737 152.298 C 228.210 151.795,228.507 151.383,228.399 151.383 C 228.290 151.383,227.795 151.815,227.299 152.343 M152.060 153.568 C 151.921 153.997,151.513 154.748,151.152 155.237 C 150.760 155.768,150.675 156.126,150.940 156.126 C 151.184 156.126,151.383 155.918,151.383 155.664 C 151.383 155.409,151.668 154.886,152.017 154.501 C 152.365 154.116,152.574 153.573,152.481 153.294 C 152.375 152.976,152.219 153.077,152.060 153.568 M76.952 154.426 C 77.096 154.818,77.584 155.672,78.035 156.324 C 79.301 158.153,79.807 159.005,80.266 160.078 C 80.498 160.621,80.943 161.348,81.256 161.694 C 81.568 162.039,82.185 163.018,82.626 163.868 C 83.103 164.789,83.323 165.015,83.170 164.427 C 83.028 163.883,82.527 162.905,82.055 162.253 C 81.584 161.601,80.984 160.623,80.721 160.079 C 80.155 158.910,79.570 157.961,78.361 156.252 C 77.871 155.560,77.470 154.814,77.470 154.595 C 77.470 154.376,77.295 154.088,77.080 153.955 C 76.846 153.811,76.794 153.999,76.952 154.426 M225.296 155.090 C 225.296 155.389,225.030 155.856,224.704 156.126 C 224.377 156.397,224.113 156.908,224.116 157.262 C 224.121 157.752,224.239 157.705,224.611 157.064 C 224.879 156.601,225.327 155.845,225.607 155.384 C 225.918 154.870,225.957 154.545,225.706 154.545 C 225.481 154.545,225.296 154.790,225.296 155.090 M101.062 155.612 C 101.207 156.004,101.694 156.858,102.146 157.510 C 103.335 159.228,103.896 160.149,104.436 161.265 C 104.699 161.808,105.276 162.787,105.719 163.439 C 106.947 165.248,107.471 166.113,107.993 167.194 C 108.256 167.737,108.833 168.715,109.276 169.368 C 110.688 171.447,111.085 172.118,111.322 172.826 C 111.450 173.207,111.733 173.518,111.952 173.518 C 112.171 173.518,112.058 173.118,111.703 172.628 C 111.347 172.139,110.943 171.472,110.806 171.146 C 110.668 170.820,110.175 170.020,109.711 169.368 C 109.246 168.715,108.651 167.737,108.389 167.194 C 107.898 166.179,107.461 165.450,106.181 163.515 C 105.776 162.903,105.045 161.650,104.557 160.731 C 102.959 157.726,102.576 157.119,102.075 156.799 C 101.803 156.625,101.581 156.235,101.581 155.933 C 101.581 155.630,101.405 155.274,101.190 155.141 C 100.956 154.996,100.905 155.185,101.062 155.612 M222.134 159.590 C 221.591 160.402,221.076 161.245,220.990 161.462 C 220.904 161.680,220.326 162.506,219.705 163.298 C 219.085 164.090,218.577 164.861,218.577 165.010 C 218.577 165.160,217.932 166.112,217.144 167.127 L 215.711 168.972 217.330 167.194 C 218.220 166.215,218.954 165.263,218.961 165.077 C 218.967 164.891,219.506 164.065,220.158 163.241 C 220.810 162.418,221.344 161.617,221.344 161.462 C 221.344 161.308,221.892 160.488,222.563 159.642 C 223.233 158.795,223.633 158.105,223.452 158.108 C 223.271 158.110,222.678 158.777,222.134 159.590 M148.617 159.438 C 148.617 159.737,148.350 160.204,148.024 160.474 C 147.698 160.745,147.433 161.256,147.437 161.610 C 147.441 162.100,147.559 162.053,147.931 161.412 C 148.199 160.949,148.648 160.193,148.927 159.732 C 149.239 159.217,149.277 158.893,149.026 158.893 C 148.801 158.893,148.617 159.138,148.617 159.438 M124.392 160.682 C 124.253 161.111,123.845 161.863,123.484 162.352 C 123.092 162.883,123.007 163.241,123.272 163.241 C 123.516 163.241,123.715 163.033,123.715 162.778 C 123.715 162.524,124.000 162.000,124.349 161.615 C 124.697 161.230,124.906 160.687,124.813 160.409 C 124.707 160.090,124.551 160.192,124.392 160.682 M145.878 163.887 C 145.428 164.460,145.059 165.150,145.059 165.420 C 145.059 165.690,144.792 166.133,144.466 166.403 C 144.140 166.674,143.876 167.185,143.879 167.539 C 143.885 168.188,144.435 167.407,145.515 165.217 C 145.783 164.674,146.263 163.918,146.580 163.538 C 146.898 163.157,147.055 162.846,146.928 162.846 C 146.801 162.846,146.329 163.315,145.878 163.887 M83.919 166.107 C 84.597 167.707,85.215 168.769,85.468 168.772 C 85.628 168.773,85.387 168.063,84.934 167.194 C 84.181 165.749,83.424 164.939,83.919 166.107 M120.949 166.552 C 120.949 166.852,120.682 167.318,120.356 167.589 C 120.030 167.860,119.765 168.370,119.769 168.724 C 119.773 169.214,119.891 169.167,120.263 168.526 C 120.531 168.064,120.980 167.308,121.259 166.847 C 121.571 166.332,121.609 166.008,121.358 166.008 C 121.133 166.008,120.949 166.253,120.949 166.552 M142.588 169.383 C 142.207 169.893,141.718 170.720,141.502 171.222 C 141.098 172.159,140.689 172.853,139.345 174.878 C 138.279 176.484,137.152 178.739,137.167 179.234 C 137.173 179.460,137.574 178.843,138.056 177.864 C 138.538 176.884,139.289 175.550,139.723 174.898 C 141.038 172.926,141.486 172.180,141.977 171.146 C 142.234 170.603,142.706 169.846,143.025 169.464 C 143.344 169.082,143.532 168.699,143.443 168.613 C 143.354 168.527,142.969 168.874,142.588 169.383 M118.272 170.898 C 117.788 171.605,117.391 172.373,117.391 172.605 C 117.391 172.836,117.125 173.247,116.798 173.518 C 116.472 173.788,116.208 174.299,116.211 174.653 C 116.217 175.302,116.767 174.522,117.847 172.332 C 118.115 171.789,118.596 171.032,118.915 170.650 C 119.234 170.268,119.417 169.879,119.323 169.785 C 119.229 169.690,118.756 170.192,118.272 170.898 M213.302 172.264 C 212.943 172.662,212.648 173.187,212.648 173.430 C 212.648 173.674,212.412 174.016,212.124 174.190 C 211.836 174.364,211.474 174.773,211.318 175.099 C 210.759 176.274,209.995 177.482,209.256 178.357 C 208.574 179.166,208.604 179.160,209.588 178.291 C 210.184 177.764,210.672 177.167,210.672 176.964 C 210.672 176.762,211.206 175.922,211.858 175.099 C 212.510 174.275,213.043 173.463,213.043 173.294 C 213.043 173.125,213.338 172.662,213.698 172.264 C 214.057 171.867,214.263 171.542,214.154 171.542 C 214.045 171.542,213.662 171.867,213.302 172.264 M115.446 175.544 C 115.402 176.463,114.371 177.270,114.101 176.598 C 113.971 176.273,113.885 176.339,113.865 176.779 C 113.848 177.159,113.984 177.470,114.168 177.470 C 114.770 177.470,115.896 175.947,115.684 175.418 C 115.542 175.062,115.468 175.101,115.446 175.544 M206.200 182.642 C 205.588 183.493,205.232 184.182,205.409 184.173 C 205.749 184.155,207.622 181.403,207.426 181.208 C 207.364 181.145,206.812 181.790,206.200 182.642 M94.551 184.238 C 94.831 184.699,95.279 185.455,95.548 185.918 C 95.919 186.558,96.037 186.606,96.042 186.116 C 96.045 185.762,95.781 185.251,95.455 184.980 C 95.128 184.710,94.862 184.243,94.862 183.944 C 94.862 183.644,94.678 183.399,94.452 183.399 C 94.201 183.399,94.240 183.723,94.551 184.238 M133.591 184.684 C 133.381 185.173,132.919 185.973,132.564 186.462 C 132.175 187.000,132.095 187.352,132.363 187.352 C 132.607 187.352,132.806 187.107,132.806 186.807 C 132.806 186.508,133.054 186.057,133.356 185.806 C 133.883 185.370,134.498 183.794,134.143 183.794 C 134.049 183.794,133.801 184.195,133.591 184.684 M204.379 185.031 C 204.362 185.384,204.081 185.895,203.755 186.166 C 203.429 186.437,203.162 186.838,203.162 187.058 C 203.162 187.278,203.532 186.988,203.984 186.413 C 204.436 185.838,204.717 185.147,204.608 184.878 C 204.484 184.570,204.399 184.627,204.379 185.031 M96.443 187.275 C 96.443 187.509,96.623 187.812,96.844 187.948 C 97.065 188.085,97.506 188.762,97.824 189.454 C 98.412 190.732,98.784 191.361,100.197 193.478 C 102.498 196.925,102.647 197.710,101.341 199.506 C 100.985 199.995,100.873 200.395,101.091 200.395 C 101.310 200.395,101.593 200.084,101.721 199.704 C 101.849 199.323,102.172 198.714,102.438 198.350 C 102.950 197.650,102.390 196.172,100.592 193.478 C 99.314 191.564,98.837 190.772,98.333 189.723 C 97.675 188.355,96.443 186.759,96.443 187.275 M202.123 188.382 C 201.976 188.794,201.588 189.443,201.260 189.825 C 200.932 190.206,200.741 190.596,200.835 190.690 C 200.929 190.784,201.428 190.245,201.943 189.493 C 202.459 188.740,202.770 188.014,202.635 187.879 C 202.501 187.744,202.270 187.971,202.123 188.382 M226.385 210.771 C 226.440 223.434,226.532 237.796,226.590 242.688 C 226.648 247.579,226.736 237.218,226.786 219.664 C 226.837 202.110,226.744 187.747,226.581 187.747 C 226.418 187.747,226.330 198.108,226.385 210.771 M130.155 190.415 C 130.015 190.795,129.487 191.657,128.982 192.330 C 128.477 193.002,128.063 193.677,128.063 193.828 C 128.063 193.979,127.682 194.618,127.217 195.248 C 126.157 196.682,126.385 198.617,127.839 200.523 C 128.397 201.255,128.860 202.014,128.868 202.211 C 128.876 202.408,129.326 203.103,129.869 203.755 C 130.546 204.568,130.768 204.692,130.576 204.150 C 130.423 203.715,130.061 203.217,129.773 203.044 C 129.485 202.870,129.249 202.531,129.249 202.290 C 129.249 202.050,128.793 201.255,128.235 200.523 C 126.964 198.857,126.658 196.957,127.450 195.652 C 127.780 195.109,128.163 194.353,128.301 193.972 C 128.438 193.592,128.708 193.281,128.900 193.281 C 129.092 193.281,129.249 193.036,129.249 192.736 C 129.249 192.437,129.497 191.986,129.799 191.735 C 130.102 191.484,130.441 190.929,130.553 190.501 C 130.805 189.537,130.503 189.472,130.155 190.415 M224.111 190.663 C 224.111 190.963,223.844 191.429,223.518 191.700 C 223.192 191.970,222.928 192.481,222.931 192.835 C 222.935 193.325,223.053 193.278,223.425 192.637 C 223.693 192.174,224.142 191.419,224.421 190.957 C 224.733 190.443,224.771 190.119,224.520 190.119 C 224.295 190.119,224.111 190.364,224.111 190.663 M198.700 193.093 C 198.562 193.522,198.153 194.274,197.792 194.763 C 197.401 195.294,197.315 195.652,197.580 195.652 C 197.824 195.652,198.024 195.444,198.024 195.189 C 198.024 194.935,198.309 194.411,198.657 194.026 C 199.006 193.641,199.215 193.098,199.122 192.820 C 199.016 192.501,198.859 192.603,198.700 193.093 M221.739 194.220 C 221.739 194.520,221.472 194.986,221.146 195.257 C 220.820 195.528,220.556 196.038,220.559 196.392 C 220.564 196.882,220.681 196.835,221.053 196.194 C 221.322 195.732,221.770 194.976,222.049 194.515 C 222.361 194.000,222.399 193.676,222.148 193.676 C 221.923 193.676,221.739 193.921,221.739 194.220 M196.474 196.417 C 196.457 196.729,196.048 197.441,195.565 197.998 L 194.686 199.012 195.809 197.968 C 196.427 197.393,196.836 196.682,196.719 196.387 C 196.546 195.953,196.499 195.959,196.474 196.417 M215.484 203.286 C 215.011 203.789,214.625 204.342,214.625 204.514 C 214.625 204.686,214.091 205.501,213.439 206.324 C 212.787 207.148,212.253 207.942,212.253 208.089 C 212.253 208.236,211.542 209.200,210.672 210.231 C 209.802 211.262,209.091 212.254,209.091 212.435 C 209.091 212.616,208.456 213.539,207.681 214.485 C 206.906 215.431,206.372 216.206,206.495 216.206 C 206.992 216.206,208.789 213.964,209.348 212.648 C 209.486 212.322,210.285 211.223,211.124 210.206 C 211.962 209.189,212.648 208.236,212.648 208.089 C 212.648 207.942,213.182 207.148,213.834 206.324 C 214.486 205.501,215.020 204.686,215.020 204.514 C 215.020 204.342,215.406 203.789,215.879 203.286 C 216.352 202.783,216.650 202.372,216.541 202.372 C 216.432 202.372,215.957 202.783,215.484 203.286 M98.474 204.331 C 98.016 205.210,97.772 205.924,97.931 205.919 C 98.287 205.907,99.704 203.130,99.473 202.898 C 99.382 202.807,98.932 203.452,98.474 204.331 M190.514 204.892 C 190.514 205.192,190.247 205.658,189.921 205.929 C 189.595 206.199,189.331 206.710,189.334 207.064 C 189.338 207.554,189.456 207.507,189.828 206.866 C 190.096 206.404,190.545 205.648,190.824 205.187 C 191.136 204.672,191.174 204.348,190.923 204.348 C 190.698 204.348,190.514 204.593,190.514 204.892 M132.277 207.806 C 132.381 208.187,132.903 209.032,133.439 209.684 C 134.100 210.488,134.323 210.615,134.134 210.079 C 133.980 209.644,133.618 209.146,133.330 208.972 C 133.042 208.799,132.806 208.409,132.806 208.106 C 132.806 207.804,132.645 207.457,132.448 207.335 C 132.251 207.213,132.174 207.425,132.277 207.806 M94.917 210.260 C 94.459 211.139,94.214 211.853,94.374 211.848 C 94.729 211.836,96.147 209.058,95.915 208.827 C 95.824 208.736,95.375 209.381,94.917 210.260 M135.974 213.884 C 135.971 214.238,136.235 214.749,136.561 215.020 C 136.887 215.290,137.154 215.757,137.154 216.056 C 137.154 216.356,137.338 216.601,137.563 216.601 C 137.814 216.601,137.776 216.277,137.464 215.762 C 137.185 215.301,136.737 214.545,136.468 214.082 C 136.096 213.442,135.979 213.394,135.974 213.884 M138.175 217.787 C 138.468 218.887,138.655 219.184,138.900 218.939 C 138.991 218.848,138.806 218.329,138.489 217.786 L 137.912 216.798 138.175 217.787 M115.020 218.452 C 115.020 218.685,115.287 219.097,115.613 219.368 C 115.939 219.638,116.206 220.070,116.206 220.327 C 116.206 220.585,116.650 221.398,117.194 222.134 C 117.737 222.871,118.182 223.283,118.182 223.050 C 118.182 222.817,117.915 222.405,117.589 222.134 C 117.263 221.864,116.996 221.432,116.996 221.175 C 116.996 220.917,116.551 220.104,116.008 219.368 C 115.464 218.631,115.020 218.219,115.020 218.452 M112.327 220.537 C 111.852 221.181,111.462 221.831,111.462 221.982 C 111.462 222.134,111.056 222.808,110.560 223.480 C 110.063 224.153,109.442 225.148,109.179 225.692 C 108.679 226.727,108.228 227.475,106.918 229.445 C 106.019 230.797,105.356 231.972,103.969 234.670 C 103.435 235.710,102.723 236.914,102.388 237.345 C 101.817 238.079,101.824 238.094,102.494 237.573 C 102.887 237.268,103.526 236.382,103.913 235.604 C 105.213 232.992,106.625 230.492,107.466 229.311 C 107.925 228.666,108.300 227.938,108.300 227.693 C 108.300 227.448,108.551 227.152,108.858 227.034 C 109.164 226.916,109.529 226.364,109.669 225.807 C 109.809 225.249,110.359 224.223,110.891 223.525 C 111.423 222.828,111.858 222.061,111.858 221.820 C 111.858 221.580,112.093 221.241,112.382 221.067 C 112.836 220.793,113.609 219.368,113.303 219.368 C 113.242 219.368,112.803 219.894,112.327 220.537 M139.528 219.585 C 139.524 220.254,140.485 222.128,140.834 222.131 C 141.009 222.133,141.043 221.956,140.908 221.738 C 140.774 221.520,140.409 220.853,140.097 220.256 C 139.785 219.659,139.529 219.357,139.528 219.585 M202.894 221.443 C 201.783 222.678,201.460 223.320,201.953 223.320 C 202.183 223.320,202.372 223.109,202.372 222.852 C 202.372 222.594,202.758 221.971,203.231 221.468 C 203.704 220.965,204.001 220.553,203.893 220.553 C 203.784 220.553,203.335 220.954,202.894 221.443 M141.558 222.925 C 141.558 223.251,141.710 223.874,141.897 224.308 C 142.111 224.807,142.237 224.880,142.237 224.506 C 142.237 224.180,142.084 223.557,141.897 223.123 C 141.683 222.624,141.558 222.551,141.558 222.925 M118.583 224.130 C 118.580 224.467,118.770 224.936,119.006 225.172 C 119.242 225.408,119.859 226.467,120.377 227.524 C 120.895 228.581,121.325 229.280,121.332 229.077 C 121.338 228.874,120.971 227.985,120.516 227.101 C 118.944 224.047,118.589 223.502,118.583 224.130 M200.677 224.318 C 200.538 224.748,200.129 225.499,199.769 225.988 C 199.377 226.519,199.292 226.877,199.557 226.877 C 199.800 226.877,200.000 226.669,200.000 226.415 C 200.000 226.160,200.285 225.637,200.633 225.252 C 200.982 224.867,201.191 224.324,201.098 224.045 C 200.992 223.727,200.835 223.828,200.677 224.318 M86.057 225.198 C 85.713 225.579,85.241 226.335,85.009 226.878 C 84.561 227.925,84.095 228.715,82.794 230.632 C 82.351 231.285,81.771 232.263,81.505 232.806 C 81.239 233.350,80.556 234.595,79.988 235.573 C 79.420 236.551,79.138 237.174,79.362 236.957 C 79.816 236.516,81.159 234.319,81.900 232.806 C 82.167 232.263,82.746 231.285,83.189 230.632 C 84.434 228.799,84.946 227.950,85.455 226.877 C 85.713 226.334,86.184 225.578,86.501 225.198 C 87.254 224.296,86.873 224.297,86.057 225.198 M142.813 225.395 C 143.491 226.996,144.108 228.057,144.361 228.060 C 144.521 228.062,144.281 227.352,143.827 226.482 C 143.074 225.038,142.317 224.227,142.813 225.395 M198.096 227.754 C 197.839 228.011,197.628 228.371,197.628 228.554 C 197.628 228.736,197.241 229.410,196.767 230.051 C 196.294 230.691,196.022 231.331,196.163 231.473 C 196.305 231.614,196.603 231.305,196.826 230.786 C 197.364 229.533,198.131 228.325,198.605 227.986 C 198.816 227.835,198.893 227.615,198.776 227.498 C 198.660 227.382,198.353 227.496,198.096 227.754 M145.286 229.444 C 145.549 230.787,146.132 231.626,146.788 231.608 C 147.033 231.601,146.951 231.379,146.606 231.114 C 146.260 230.849,145.770 230.099,145.516 229.447 L 145.055 228.261 145.286 229.444 M195.288 232.053 C 195.271 232.400,194.901 233.006,194.466 233.399 C 194.032 233.793,193.690 234.398,193.707 234.745 C 193.734 235.280,193.771 235.286,193.955 234.783 C 194.074 234.457,194.524 233.802,194.954 233.329 C 195.385 232.855,195.643 232.233,195.528 231.945 C 195.379 231.573,195.310 231.604,195.288 232.053 M124.372 234.289 C 124.476 234.669,125.019 235.514,125.579 236.166 C 126.283 236.985,126.396 237.046,125.943 236.364 C 125.583 235.820,125.117 234.975,124.907 234.486 C 124.455 233.432,124.105 233.303,124.372 234.289 M192.637 235.813 C 192.490 236.225,192.102 236.874,191.774 237.255 C 191.446 237.637,191.254 238.027,191.349 238.121 C 191.443 238.215,191.942 237.676,192.457 236.924 C 192.973 236.171,193.284 235.445,193.149 235.310 C 193.014 235.175,192.784 235.401,192.637 235.813 M150.854 239.031 C 150.958 239.412,151.481 240.257,152.016 240.909 C 152.677 241.714,152.900 241.841,152.711 241.304 C 152.557 240.870,152.195 240.372,151.907 240.198 C 151.619 240.024,151.383 239.634,151.383 239.332 C 151.383 239.029,151.222 238.682,151.025 238.560 C 150.828 238.439,150.751 238.650,150.854 239.031 M101.072 239.338 C 100.933 239.767,100.525 240.519,100.164 241.008 C 99.772 241.539,99.687 241.897,99.952 241.897 C 100.196 241.897,100.395 241.689,100.395 241.434 C 100.395 241.180,100.680 240.656,101.029 240.271 C 101.377 239.886,101.586 239.343,101.493 239.065 C 101.387 238.746,101.231 238.848,101.072 239.338 M127.940 240.197 C 128.084 240.589,128.572 241.443,129.023 242.095 C 130.273 243.901,130.794 244.773,131.234 245.798 C 131.756 247.012,133.202 248.849,133.202 248.298 C 133.202 248.064,133.021 247.761,132.800 247.625 C 132.580 247.488,132.139 246.811,131.820 246.119 C 131.184 244.737,130.688 243.915,129.349 242.022 C 128.859 241.330,128.458 240.585,128.458 240.366 C 128.458 240.147,128.283 239.859,128.068 239.726 C 127.834 239.581,127.782 239.770,127.940 240.197 M189.214 240.524 C 189.075 240.953,188.667 241.705,188.306 242.194 C 187.915 242.725,187.829 243.083,188.094 243.083 C 188.338 243.083,188.538 242.875,188.538 242.620 C 188.538 242.365,188.823 241.842,189.171 241.457 C 189.519 241.072,189.728 240.529,189.636 240.250 C 189.529 239.932,189.373 240.034,189.214 240.524 M186.957 243.947 C 186.957 244.205,186.556 244.870,186.067 245.426 L 185.178 246.437 186.104 245.654 C 187.242 244.691,187.946 243.478,187.366 243.478 C 187.141 243.478,186.957 243.689,186.957 243.947 M154.422 244.940 C 154.567 245.332,155.098 246.203,155.603 246.875 C 156.108 247.548,156.522 248.269,156.522 248.478 C 156.522 248.687,156.966 249.461,157.510 250.198 C 158.053 250.934,158.498 251.335,158.498 251.088 C 158.498 250.841,158.314 250.526,158.090 250.387 C 157.866 250.249,157.298 249.305,156.828 248.289 C 156.359 247.274,155.742 246.300,155.458 246.127 C 155.173 245.953,154.941 245.563,154.941 245.261 C 154.941 244.958,154.765 244.602,154.550 244.469 C 154.316 244.325,154.265 244.513,154.422 244.940 M97.628 245.209 C 97.628 245.508,97.362 245.974,97.036 246.245 C 96.709 246.516,96.445 247.027,96.449 247.380 C 96.453 247.870,96.571 247.823,96.943 247.183 C 97.211 246.720,97.659 245.964,97.939 245.503 C 98.250 244.988,98.289 244.664,98.038 244.664 C 97.813 244.664,97.628 244.909,97.628 245.209 M133.628 249.445 C 133.611 249.791,133.997 250.414,134.486 250.828 C 135.368 251.575,135.370 251.574,134.735 250.791 C 134.383 250.356,133.997 249.733,133.877 249.407 C 133.692 248.904,133.655 248.910,133.628 249.445 " stroke="none" fill="#fce058" fill-rule="evenodd"></path><path id="path4" d="" stroke="none" fill="#fce41c" fill-rule="evenodd"></path></g></svg>
