<svg width="20" height="19" viewBox="0 0 20 19" fill="none" xmlns="http://www.w3.org/2000/svg">
<path d="M10 18.9749L8.975 18.0499C6.25833 15.5666 4.08333 13.3999 2.45 11.5499C0.816666 9.6999 0 7.8249 0 5.9249C0 4.4249 0.504167 3.17074 1.5125 2.1624C2.52083 1.15407 3.76667 0.649902 5.25 0.649902C6.1 0.649902 6.94167 0.854069 7.775 1.2624C8.60833 1.67074 9.35 2.34157 10 3.2749C10.7333 2.34157 11.4917 1.67074 12.275 1.2624C13.0583 0.854069 13.8833 0.649902 14.75 0.649902C16.2333 0.649902 17.4792 1.15407 18.4875 2.1624C19.4958 3.17074 20 4.4249 20 5.9249C20 7.8249 19.1833 9.6999 17.55 11.5499C15.9167 13.3999 13.7417 15.5666 11.025 18.0499L10 18.9749Z" fill="url(#paint0_linear_1335_6334)"/>
<defs>
<linearGradient id="paint0_linear_1335_6334" x1="10" y1="0.649902" x2="10" y2="18.9749" gradientUnits="userSpaceOnUse">
<stop stop-color="#FF5E6C"/>
<stop offset="1" stop-color="#B90010"/>
</linearGradient>
</defs>
</svg>
