<svg width="22" height="22" viewBox="0 0 22 22" fill="none" xmlns="http://www.w3.org/2000/svg">
<path d="M7.65 21.5L5.75 18.25L1.975 17.475L2.4 13.8L0 11L2.4 8.225L1.975 4.55L5.75 3.775L7.65 0.5L11 2.05L14.35 0.5L16.275 3.775L20.025 4.55L19.6 8.225L22 11L19.6 13.8L20.025 17.475L16.275 18.25L14.35 21.5L11 19.95L7.65 21.5ZM9.925 14.325L15.6 8.7L14.475 7.675L9.925 12.175L7.55 9.7L6.4 10.825L9.925 14.325Z" fill="url(#paint0_linear_1335_6327)"/>
<defs>
<linearGradient id="paint0_linear_1335_6327" x1="11" y1="0.5" x2="11" y2="21.5" gradientUnits="userSpaceOnUse">
<stop stop-color="#18E2D6"/>
<stop offset="1" stop-color="#00DD31"/>
</linearGradient>
</defs>
</svg>
