<svg width="22" height="16" viewBox="0 0 22 16" fill="none" xmlns="http://www.w3.org/2000/svg">
<path d="M1.5 16C1.08333 16 0.729167 15.8542 0.4375 15.5625C0.145833 15.2708 0 14.9167 0 14.5V3H1.5V14.5H19V16H1.5ZM4.5 13C4.08333 13 3.72917 12.8542 3.4375 12.5625C3.14583 12.2708 3 11.9167 3 11.5V1.5C3 1.08333 3.14583 0.729167 3.4375 0.4375C3.72917 0.145833 4.08333 0 4.5 0H20.5C20.9167 0 21.2708 0.145833 21.5625 0.4375C21.8542 0.729167 22 1.08333 22 1.5V11.5C22 11.9167 21.8542 12.2708 21.5625 12.5625C21.2708 12.8542 20.9167 13 20.5 13H4.5ZM4.5 11.5H7C7 10.8 6.75833 10.2083 6.275 9.725C5.79167 9.24167 5.2 9 4.5 9V11.5ZM18 11.5H20.5V9C19.8 9 19.2083 9.24167 18.725 9.725C18.2417 10.2083 18 10.8 18 11.5ZM12.5 9.5C13.3333 9.5 14.0417 9.20833 14.625 8.625C15.2083 8.04167 15.5 7.33333 15.5 6.5C15.5 5.66667 15.2083 4.95833 14.625 4.375C14.0417 3.79167 13.3333 3.5 12.5 3.5C11.6667 3.5 10.9583 3.79167 10.375 4.375C9.79167 4.95833 9.5 5.66667 9.5 6.5C9.5 7.33333 9.79167 8.04167 10.375 8.625C10.9583 9.20833 11.6667 9.5 12.5 9.5ZM4.5 4C5.2 4 5.79167 3.75833 6.275 3.275C6.75833 2.79167 7 2.2 7 1.5H4.5V4ZM20.5 4V1.5H18C18 2.2 18.2417 2.79167 18.725 3.275C19.2083 3.75833 19.8 4 20.5 4Z" fill="url(#paint0_linear_1335_6341)"/>
<defs>
<linearGradient id="paint0_linear_1335_6341" x1="11" y1="0" x2="11" y2="16" gradientUnits="userSpaceOnUse">
<stop stop-color="#5EB0E3"/>
<stop offset="1" stop-color="#008AE0"/>
</linearGradient>
</defs>
</svg>
