<svg width="21" height="20" viewBox="0 0 21 20" fill="none" xmlns="http://www.w3.org/2000/svg">
<path d="M10.9 20C10.7 20 10.5083 19.9708 10.325 19.9125C10.1417 19.8542 9.96667 19.7417 9.8 19.575L0.425 10.2C0.258333 10.0333 0.145833 9.85833 0.0875001 9.675C0.0291668 9.49167 0 9.3 0 9.1V1.5C0 1.06667 0.141667 0.708333 0.425 0.425C0.708333 0.141667 1.06667 0 1.5 0H9.1C9.3 0 9.5 0.0291668 9.7 0.0875001C9.9 0.145833 10.0833 0.258333 10.25 0.425L19.575 9.75C19.9083 10.0833 20.075 10.4542 20.075 10.8625C20.075 11.2708 19.9083 11.6417 19.575 11.975L11.975 19.575C11.8417 19.7083 11.6792 19.8125 11.4875 19.8875C11.2958 19.9625 11.1 20 10.9 20ZM4.125 5.4C4.475 5.4 4.77917 5.27083 5.0375 5.0125C5.29583 4.75417 5.425 4.45 5.425 4.1C5.425 3.75 5.29583 3.44583 5.0375 3.1875C4.77917 2.92917 4.475 2.8 4.125 2.8C3.775 2.8 3.47083 2.92917 3.2125 3.1875C2.95417 3.44583 2.825 3.75 2.825 4.1C2.825 4.45 2.95417 4.75417 3.2125 5.0125C3.47083 5.27083 3.775 5.4 4.125 5.4Z" fill="url(#paint0_linear_1335_6320)"/>
<defs>
<linearGradient id="paint0_linear_1335_6320" x1="10.0375" y1="0" x2="10.0375" y2="20" gradientUnits="userSpaceOnUse">
<stop stop-color="#FFCB51"/>
<stop offset="1" stop-color="#FFB200"/>
</linearGradient>
</defs>
</svg>
