<svg width="13" height="14" viewBox="0 0 13 14" fill="none" xmlns="http://www.w3.org/2000/svg">
<circle cx="6.5" cy="7.5" r="4.5" fill="#3C3C3B"/>
<path d="M12.3732 7.30216C12.3187 7.19063 12.3187 7.06272 12.3732 6.95121L12.8785 5.9175C13.1599 5.34195 12.9369 4.65594 12.371 4.35569L11.3547 3.81641C11.245 3.75825 11.1698 3.65473 11.1484 3.53251L10.9496 2.3992C10.8389 1.76821 10.2552 1.34419 9.62104 1.43392L8.48181 1.59507C8.35884 1.61243 8.23726 1.5729 8.14805 1.48661L7.32112 0.686634C6.86067 0.241187 6.13933 0.241161 5.67891 0.686634L4.85195 1.48669C4.76272 1.573 4.64113 1.61246 4.51819 1.59515L3.37896 1.434C2.74455 1.34422 2.16108 1.76829 2.0504 2.39928L1.85162 3.53253C1.83016 3.65478 1.75498 3.75827 1.64536 3.81646L0.628982 4.35574C0.0630836 4.65597 -0.159825 5.34203 0.12151 5.91758L0.626786 6.95126C0.681296 7.0628 0.681296 7.19071 0.626786 7.30222L0.121483 8.3359C-0.159852 8.91145 0.0630571 9.59746 0.628956 9.89771L1.64533 10.437C1.75498 10.4952 1.83016 10.5987 1.85162 10.7209L2.0504 11.8542C2.15116 12.4286 2.64371 12.8315 3.20979 12.8314C3.26555 12.8314 3.32212 12.8275 3.37898 12.8194L4.51822 12.6583C4.64108 12.6409 4.76275 12.6805 4.85197 12.7668L5.67891 13.5667C5.90918 13.7895 6.20454 13.9008 6.5 13.9008C6.79539 13.9008 7.09093 13.7894 7.32109 13.5667L8.14805 12.7668C8.23728 12.6805 8.3589 12.641 8.48181 12.6583L9.62104 12.8194C10.2555 12.9092 10.8389 12.4852 10.9496 11.8542L11.1484 10.7209C11.1699 10.5987 11.245 10.4952 11.3547 10.437L12.371 9.89771C12.9369 9.59748 13.1599 8.91143 12.8785 8.33587L12.3732 7.30216ZM4.93718 3.61038C5.7271 3.61038 6.36976 4.25304 6.36976 5.04296C6.36976 5.83288 5.7271 6.47554 4.93718 6.47554C4.14726 6.47554 3.5046 5.83288 3.5046 5.04296C3.5046 4.25304 4.14726 3.61038 4.93718 3.61038ZM4.19775 9.98144C4.12146 10.0577 4.02146 10.0959 3.92149 10.0959C3.82152 10.0959 3.7215 10.0577 3.64524 9.98144C3.49266 9.82886 3.49266 9.58148 3.64524 9.4289L8.80223 4.27191C8.95478 4.11934 9.20219 4.11934 9.35476 4.27191C9.50734 4.42449 9.50734 4.67187 9.35476 4.82445L4.19775 9.98144ZM8.06277 10.643C7.27285 10.643 6.63019 10.0004 6.63019 9.21044C6.63019 8.42052 7.27285 7.77786 8.06277 7.77786C8.85269 7.77786 9.49535 8.42052 9.49535 9.21044C9.49535 10.0004 8.85269 10.643 8.06277 10.643Z" fill="#FFBE00"/>
<path d="M8.06277 8.55908C7.70372 8.55908 7.41159 8.85119 7.41159 9.21024C7.41159 9.56929 7.7037 9.86139 8.06277 9.86139C8.42183 9.86139 8.71393 9.56929 8.71393 9.21024C8.71393 8.85119 8.42183 8.55908 8.06277 8.55908Z" fill="#FFBE00"/>
<path d="M4.93717 4.39111C4.57812 4.39111 4.28601 4.68322 4.28601 5.04227C4.28601 5.40132 4.57812 5.69345 4.93717 5.69345C5.29622 5.69345 5.58835 5.40135 5.58835 5.04227C5.58832 4.68324 5.29622 4.39111 4.93717 4.39111Z" fill="#FFBE00"/>
</svg>
